<svg id="svg" version="1.1" xmlns="http://www.w3.org/2000/svg" xmlns:xlink="http://www.w3.org/1999/xlink" width="400" height="266.6666666666667" viewBox="0, 0, 400,266.6666666666667"><g id="svgg"><path id="path0" d="M0.000 133.333 L 0.000 266.667 200.000 266.667 L 400.000 266.667 400.000 133.333 L 400.000 0.000 200.000 0.000 L 0.000 0.000 0.000 133.333 M85.854 94.014 C 88.800 94.395,93.768 95.766,95.242 96.605 C 95.495 96.750,96.355 97.146,97.152 97.487 C 110.344 103.121,118.240 120.777,114.347 135.938 C 107.099 164.169,69.609 170.076,53.195 145.573 C 47.111 136.489,45.884 123.752,50.185 114.323 C 50.545 113.535,50.930 112.654,51.041 112.365 C 53.273 106.563,61.663 99.104,69.575 95.886 C 73.743 94.191,80.880 93.370,85.854 94.014 M76.563 96.976 C 56.500 100.063,44.273 122.705,53.202 140.234 C 54.246 142.285,57.232 146.803,57.809 147.208 C 58.059 147.383,58.250 147.586,58.233 147.660 C 58.044 148.504,64.697 153.531,68.284 155.254 C 91.854 166.578,117.885 145.525,111.810 120.052 C 109.342 109.701,99.612 99.601,90.364 97.788 C 90.148 97.745,89.489 97.581,88.899 97.422 C 86.267 96.713,79.792 96.479,76.563 96.976 M204.480 109.765 C 204.973 109.962,205.143 111.568,204.993 114.610 L 204.908 116.330 203.118 116.330 C 200.472 116.330,199.486 117.283,199.481 119.848 L 199.479 120.555 202.279 120.629 L 205.078 120.703 205.078 123.798 L 205.078 126.892 202.412 126.843 L 199.746 126.793 199.678 135.988 L 199.609 145.182 195.768 145.254 L 191.927 145.326 191.927 136.217 L 191.927 127.107 190.169 127.030 L 188.411 126.953 188.338 123.763 L 188.265 120.573 190.065 120.573 L 191.865 120.573 191.973 118.164 C 192.190 113.364,194.025 111.110,198.828 109.746 C 200.117 109.379,203.541 109.391,204.480 109.765 M146.875 123.958 L 146.875 138.281 154.252 138.281 L 161.629 138.281 161.608 141.862 L 161.587 145.443 149.999 145.443 L 138.411 145.443 138.455 138.932 C 138.479 135.352,138.508 127.295,138.520 121.029 L 138.542 109.635 142.708 109.635 L 146.875 109.635 146.875 123.958 M231.711 116.219 L 231.781 122.152 232.752 121.393 C 235.996 118.861,242.255 119.304,245.135 122.270 C 247.594 124.802,247.962 126.878,247.859 137.630 L 247.786 145.182 243.945 145.254 L 240.104 145.326 240.045 140.306 C 240.012 137.545,239.983 134.056,239.979 132.552 C 239.969 127.919,238.521 126.344,234.812 126.936 C 232.014 127.383,231.938 127.638,231.775 137.240 L 231.641 145.182 227.865 145.182 L 224.089 145.182 224.022 127.662 L 223.955 110.142 227.798 110.214 L 231.641 110.286 231.711 116.219 M216.927 116.797 C 216.927 119.017,217.015 120.819,217.122 120.802 C 217.230 120.786,218.523 120.786,219.995 120.802 L 222.673 120.833 222.599 123.893 L 222.526 126.953 219.712 127.027 L 216.898 127.101 216.978 132.556 L 217.057 138.010 217.779 138.731 C 218.434 139.386,218.684 139.455,220.513 139.486 L 222.526 139.521 222.600 142.273 C 222.689 145.604,222.673 145.620,219.113 145.783 C 214.703 145.986,211.277 144.310,210.038 141.346 C 209.602 140.301,209.101 133.121,209.194 129.232 L 209.245 127.083 207.487 127.083 L 205.729 127.083 205.729 123.958 L 205.729 120.833 207.392 120.833 L 209.055 120.833 209.231 119.663 C 209.328 119.019,209.325 117.386,209.226 116.034 C 208.969 112.532,208.696 112.760,213.143 112.760 L 216.927 112.760 216.927 116.797 M58.810 119.660 L 59.809 118.999 62.652 120.199 C 64.216 120.859,66.842 121.967,68.490 122.661 C 76.133 125.880,76.052 125.831,74.898 126.531 C 74.280 126.906,74.161 126.901,73.431 126.470 C 71.839 125.530,65.885 123.538,65.885 123.946 C 65.885 124.694,73.977 128.115,75.763 128.122 C 79.288 128.135,83.700 124.909,85.687 120.867 C 86.566 119.077,86.617 119.027,87.756 118.852 C 89.290 118.616,101.251 118.917,103.255 119.242 C 104.115 119.381,105.872 119.638,107.161 119.813 C 109.962 120.192,110.198 120.346,109.359 121.249 C 108.522 122.150,107.901 122.359,106.783 122.117 C 104.260 121.570,93.967 121.051,93.568 121.450 C 93.477 121.540,94.506 121.621,95.855 121.630 C 98.901 121.648,99.125 121.668,106.200 122.553 C 107.060 122.660,107.304 122.793,107.240 123.121 C 107.118 123.754,105.500 124.756,104.849 124.601 C 104.546 124.529,103.564 124.432,102.669 124.387 C 101.774 124.342,100.963 124.227,100.868 124.132 C 100.616 123.880,91.927 123.918,91.927 124.171 C 91.927 124.287,93.597 124.399,95.638 124.420 C 99.815 124.461,104.157 124.884,104.554 125.287 C 104.977 125.718,103.206 127.170,102.510 126.963 C 102.204 126.872,99.258 126.758,95.964 126.708 L 89.974 126.618 95.182 126.852 C 102.385 127.175,102.195 127.154,102.287 127.633 C 102.500 128.736,101.216 129.011,95.703 129.041 C 90.014 129.073,87.879 129.476,84.595 131.141 L 83.214 131.840 84.250 132.743 C 87.244 135.352,92.933 137.634,97.201 137.937 C 99.849 138.125,99.826 138.093,98.332 139.559 L 97.185 140.685 94.598 140.131 C 92.205 139.619,88.111 138.319,83.333 136.554 C 79.983 135.317,71.021 130.576,68.572 128.745 C 68.116 128.404,67.663 128.125,67.566 128.125 C 67.468 128.125,66.201 127.345,64.749 126.392 C 62.183 124.708,56.789 121.867,54.948 121.230 C 54.191 120.968,54.022 120.771,53.953 120.068 C 53.803 118.543,53.970 118.491,55.966 119.442 L 57.811 120.321 58.810 119.660 M268.007 120.790 C 272.817 122.692,273.438 124.533,273.438 136.897 L 273.438 145.313 269.792 145.313 L 266.146 145.313 266.146 144.388 L 266.146 143.463 265.288 144.117 C 259.313 148.674,250.267 146.132,249.541 139.692 C 248.900 134.004,252.676 130.916,261.073 130.263 C 265.294 129.934,266.884 128.603,265.140 126.859 C 263.598 125.316,258.333 126.185,258.333 127.983 C 258.333 128.328,257.787 128.385,254.533 128.385 L 250.732 128.385 250.916 127.018 C 251.362 123.694,253.134 121.802,256.979 120.544 C 259.217 119.811,265.909 119.960,268.007 120.790 M294.390 120.588 C 297.313 121.491,299.173 123.795,299.750 127.228 C 300.077 129.173,300.330 144.544,300.042 144.994 C 299.882 145.245,298.904 145.309,296.074 145.255 L 292.318 145.182 292.188 137.023 L 292.057 128.863 291.221 128.116 C 289.734 126.788,287.483 126.540,285.629 127.499 C 284.296 128.188,284.254 128.450,284.115 137.109 L 283.984 145.182 280.078 145.182 L 276.172 145.182 276.104 133.008 L 276.037 120.833 279.815 120.833 L 283.594 120.833 283.594 121.660 L 283.594 122.487 284.180 121.968 C 286.409 119.997,290.628 119.427,294.390 120.588 M316.927 120.328 C 321.277 121.027,323.898 123.383,324.369 127.018 L 324.546 128.385 320.765 128.385 L 316.984 128.385 316.821 127.738 C 316.409 126.098,312.418 125.489,311.047 126.856 C 309.728 128.173,310.759 129.175,313.958 129.687 C 323.037 131.141,325.543 133.117,325.186 138.546 C 324.842 143.785,321.084 146.337,313.693 146.350 C 306.280 146.363,302.195 143.776,301.770 138.802 L 301.693 137.891 304.427 137.811 C 308.379 137.695,309.157 137.855,309.635 138.878 C 310.727 141.213,316.941 141.106,317.137 138.750 C 317.246 137.444,316.572 137.129,312.553 136.606 C 305.222 135.652,302.600 133.492,302.607 128.412 C 302.614 122.364,308.594 118.989,316.927 120.328 M344.428 120.798 C 349.756 122.399,350.446 124.233,350.569 137.109 L 350.651 145.703 347.005 145.703 L 343.359 145.703 343.279 144.868 L 343.198 144.034 341.977 144.910 C 339.736 146.518,335.123 147.118,332.041 146.203 C 325.129 144.150,324.546 134.916,331.137 131.885 C 332.378 131.315,333.506 131.117,339.117 130.489 C 341.857 130.182,342.708 129.716,342.708 128.526 C 342.708 125.843,336.816 125.442,335.577 128.041 L 335.165 128.906 331.479 128.906 L 327.793 128.906 327.963 127.455 C 328.666 121.480,336.355 118.372,344.428 120.798 M168.620 120.465 L 170.703 120.609 170.775 128.689 C 170.864 138.781,171.024 139.216,174.622 139.174 C 178.368 139.131,178.751 138.137,178.855 128.190 L 178.935 120.573 182.813 120.573 L 186.691 120.573 186.700 132.655 C 186.710 146.846,187.190 145.355,182.646 145.255 L 179.297 145.182 179.298 144.360 C 179.299 143.466,179.247 143.473,177.865 144.569 C 174.840 146.967,168.194 146.587,165.563 143.867 C 163.290 141.516,163.003 139.975,162.840 129.248 L 162.709 120.605 163.841 120.524 C 164.464 120.479,165.326 120.415,165.755 120.382 C 166.185 120.349,167.474 120.386,168.620 120.465 M265.082 135.261 C 265.023 135.319,263.861 135.499,262.500 135.662 C 258.092 136.190,257.031 136.715,257.031 138.371 C 257.031 141.127,263.121 141.189,265.137 138.453 C 266.030 137.242,265.981 134.392,265.082 135.261 M341.806 135.692 C 341.381 135.819,340.268 135.987,339.332 136.067 C 335.667 136.378,335.123 136.564,334.537 137.703 C 333.615 139.496,335.414 141.139,337.891 140.767 C 341.187 140.272,342.601 139.133,342.884 136.748 C 343.050 135.346,343.029 135.327,341.806 135.692 " stroke="none" fill="#fbfbfb" fill-rule="evenodd"></path><path id="path1" d="M77.083 94.283 C 52.820 97.203,39.867 124.571,53.028 145.104 C 64.091 162.363,87.812 166.124,103.406 153.092 C 113.039 145.043,117.106 132.823,114.471 119.850 C 113.871 116.897,111.660 111.579,110.259 109.718 C 109.916 109.262,109.635 108.814,109.635 108.723 C 109.635 108.178,105.307 103.317,103.658 102.010 C 102.577 101.154,101.634 100.370,101.563 100.270 C 100.876 99.305,93.563 95.873,90.448 95.054 C 86.809 94.097,81.280 93.777,77.083 94.283 M87.760 96.999 C 103.151 100.275,113.113 112.827,112.691 128.413 C 112.556 133.371,112.530 133.558,111.544 136.589 C 105.289 155.803,83.364 164.312,66.018 154.257 C 50.164 145.067,45.383 124.708,55.601 109.896 C 56.675 108.339,62.572 102.344,63.030 102.344 C 63.139 102.344,63.856 101.920,64.622 101.401 C 67.033 99.771,71.716 97.718,73.958 97.309 C 74.316 97.244,75.313 97.062,76.172 96.904 C 78.664 96.447,79.117 96.419,82.552 96.503 C 84.342 96.548,86.686 96.771,87.760 96.999 M198.568 109.987 C 194.095 111.148,191.927 114.233,191.927 119.437 L 191.927 120.810 190.169 120.887 L 188.411 120.964 188.411 123.828 L 188.411 126.693 190.169 126.770 L 191.927 126.847 191.927 135.949 L 191.927 145.052 195.703 145.052 L 199.479 145.052 199.479 135.938 L 199.479 126.823 202.214 126.823 L 204.948 126.823 204.948 123.828 L 204.948 120.833 202.214 120.833 L 199.479 120.833 199.479 119.306 C 199.479 116.802,200.421 116.062,203.575 116.091 L 204.948 116.103 204.948 112.999 C 204.948 111.292,204.919 109.891,204.883 109.884 C 203.642 109.662,199.564 109.728,198.568 109.987 M138.542 127.604 L 138.542 145.313 150.000 145.313 L 161.458 145.313 161.458 141.797 L 161.458 138.281 154.167 138.281 L 146.875 138.281 146.875 124.089 L 146.875 109.896 142.708 109.896 L 138.542 109.896 138.542 127.604 M224.219 127.734 L 224.219 145.052 227.865 145.052 L 231.510 145.052 231.510 137.677 C 231.510 127.643,231.856 126.729,235.659 126.714 C 239.745 126.699,239.953 127.193,240.053 137.174 L 240.132 145.052 243.894 145.052 L 247.656 145.052 247.648 137.305 C 247.635 125.886,247.143 123.731,244.056 121.576 C 240.977 119.427,234.641 119.521,232.550 121.747 C 231.546 122.815,231.510 122.630,231.510 116.406 L 231.510 110.417 227.865 110.417 L 224.219 110.417 224.219 127.734 M209.317 116.992 L 209.245 120.964 207.617 120.964 L 205.989 120.964 205.989 123.893 L 205.990 126.823 207.651 126.823 L 209.312 126.823 209.439 133.268 C 209.623 142.641,210.557 144.285,216.355 145.451 C 218.466 145.876,219.258 145.850,221.419 145.287 L 222.396 145.032 222.396 142.308 L 222.396 139.583 220.447 139.583 C 218.662 139.583,218.426 139.519,217.647 138.824 L 216.797 138.064 216.797 132.509 L 216.797 126.953 219.596 126.879 L 222.396 126.805 222.396 123.819 L 222.396 120.833 219.518 120.833 L 216.641 120.833 216.719 116.927 L 216.797 113.020 213.093 113.020 L 209.389 113.021 209.317 116.992 M214.203 115.087 C 213.977 115.453,213.281 115.445,213.281 115.076 C 213.281 114.918,213.457 114.855,213.672 114.938 C 213.887 115.020,214.063 114.955,214.063 114.792 C 214.063 114.630,214.133 114.567,214.219 114.653 C 214.305 114.739,214.298 114.934,214.203 115.087 M54.167 119.792 C 54.167 120.365,54.271 120.833,54.398 120.833 C 54.525 120.833,55.902 121.430,57.458 122.160 C 60.069 123.384,62.512 124.799,68.053 128.298 C 76.582 133.682,85.326 137.687,92.122 139.321 C 93.376 139.622,94.825 139.980,95.343 140.117 C 96.846 140.512,97.197 140.424,98.438 139.333 L 99.609 138.303 98.177 138.291 C 97.389 138.284,96.335 138.167,95.833 138.030 C 95.332 137.893,94.512 137.711,94.012 137.626 C 90.566 137.036,83.073 133.046,83.073 131.800 C 83.073 131.291,88.451 129.335,90.734 129.014 C 92.430 128.776,98.297 128.730,99.595 128.945 C 100.728 129.133,102.645 128.062,102.118 127.535 C 101.981 127.398,99.105 127.223,95.726 127.146 C 92.348 127.069,89.583 126.923,89.583 126.821 C 89.583 126.269,96.033 126.140,100.328 126.605 C 103.110 126.906,103.136 126.904,103.784 126.295 C 104.518 125.605,104.511 125.212,103.762 125.100 C 102.988 124.985,95.402 124.474,93.490 124.407 C 92.559 124.375,91.797 124.232,91.797 124.089 C 91.797 123.642,96.784 123.647,101.272 124.099 C 105.448 124.519,105.553 124.518,106.220 124.021 C 107.510 123.058,107.260 122.741,105.026 122.509 C 103.909 122.393,102.760 122.269,102.474 122.233 C 102.188 122.197,100.045 122.084,97.713 121.982 C 94.818 121.855,93.502 121.706,93.567 121.510 C 93.719 121.052,98.720 121.029,102.474 121.468 C 108.824 122.212,108.136 122.234,109.085 121.255 L 109.929 120.384 108.545 120.208 C 107.784 120.112,106.810 119.927,106.380 119.799 C 105.951 119.671,104.837 119.495,103.906 119.408 C 102.975 119.321,101.100 119.147,99.740 119.021 C 96.173 118.689,87.823 118.698,87.616 119.034 C 87.523 119.184,87.284 119.244,87.085 119.167 C 86.846 119.076,86.542 119.428,86.186 120.209 C 83.229 126.699,77.199 129.700,71.875 127.330 C 69.712 126.368,65.625 124.122,65.625 123.897 C 65.625 123.359,71.408 125.147,73.322 126.276 C 74.203 126.796,74.272 126.800,74.926 126.371 L 75.610 125.924 73.807 125.083 C 72.816 124.621,70.775 123.759,69.271 123.168 C 67.767 122.578,65.799 121.752,64.897 121.334 C 63.996 120.915,63.208 120.573,63.147 120.573 C 63.086 120.573,62.396 120.280,61.613 119.922 C 59.865 119.122,59.751 119.121,58.747 119.887 L 57.940 120.502 56.118 119.629 C 55.116 119.149,54.268 118.755,54.232 118.753 C 54.196 118.751,54.167 119.219,54.167 119.792 M258.721 120.317 C 254.048 121.246,251.443 123.580,251.096 127.148 L 250.975 128.385 254.521 128.385 L 258.066 128.385 258.438 127.495 C 258.892 126.408,259.532 126.041,261.285 125.862 C 266.217 125.357,267.858 129.529,262.992 130.201 C 262.077 130.327,260.273 130.563,258.984 130.725 C 252.105 131.591,249.449 134.092,249.811 139.366 C 250.261 145.939,259.626 148.669,265.313 143.884 L 266.112 143.212 266.194 144.067 L 266.276 144.922 269.747 144.995 L 273.217 145.067 273.131 135.620 C 273.034 124.995,273.011 124.861,270.948 122.857 C 268.576 120.553,263.177 119.431,258.721 120.317 M286.517 120.748 C 285.904 120.964,284.979 121.541,284.462 122.029 C 283.297 123.128,283.333 123.133,283.333 121.875 L 283.333 120.833 279.818 120.833 L 276.302 120.833 276.302 132.943 L 276.302 145.052 280.064 145.052 L 283.826 145.052 283.905 137.174 C 284.004 127.326,284.203 126.823,287.999 126.823 C 291.934 126.823,292.031 127.053,292.188 136.811 L 292.318 144.922 296.159 144.994 L 300.000 145.066 299.991 137.312 C 299.977 125.200,299.052 122.350,294.619 120.761 C 292.987 120.176,288.154 120.168,286.517 120.748 M310.931 120.398 C 310.863 120.463,310.309 120.584,309.699 120.667 C 305.418 121.252,302.254 125.225,302.697 129.460 C 303.139 133.688,305.970 135.572,313.183 136.441 C 316.553 136.847,317.824 137.727,317.323 139.307 C 316.642 141.453,310.420 141.163,309.492 138.942 L 309.108 138.021 305.465 138.021 C 303.107 138.021,301.823 138.117,301.823 138.293 C 301.823 142.979,305.632 145.801,312.272 146.034 C 320.859 146.335,324.644 144.126,324.946 138.639 C 325.230 133.460,322.548 131.052,315.556 130.208 C 311.017 129.660,309.304 128.416,310.896 126.824 C 312.505 125.215,316.927 125.816,316.927 127.645 C 316.927 128.089,317.204 128.125,320.609 128.125 L 324.292 128.125 324.147 126.728 C 323.735 122.731,320.136 120.463,314.014 120.340 C 312.387 120.308,311.000 120.334,310.931 120.398 M335.342 120.610 C 331.206 121.402,328.598 123.874,328.030 127.539 L 327.858 128.646 331.572 128.640 L 335.286 128.635 335.677 127.794 C 337.023 124.897,343.633 125.962,342.882 128.955 C 342.615 130.021,341.336 130.523,338.309 130.749 C 334.665 131.020,332.626 131.392,331.114 132.061 C 325.161 134.694,325.385 143.492,331.465 145.867 C 335.017 147.254,340.875 146.349,342.718 144.129 C 343.230 143.512,343.490 143.691,343.490 144.661 L 343.490 145.573 347.010 145.573 L 350.530 145.573 350.501 141.211 C 350.410 127.523,350.126 125.306,348.177 123.087 C 346.264 120.908,340.047 119.708,335.342 120.610 M163.036 129.102 C 163.087 138.670,163.327 140.442,164.884 142.727 C 167.463 146.513,174.167 147.222,178.209 144.135 L 179.427 143.205 179.427 144.129 L 179.427 145.052 182.943 145.052 L 186.458 145.052 186.458 132.813 L 186.458 120.573 182.843 120.573 L 179.228 120.573 179.047 127.930 C 178.784 138.583,178.492 139.324,174.557 139.322 C 170.816 139.320,170.573 138.661,170.573 128.524 L 170.573 120.573 166.782 120.573 L 162.991 120.573 163.036 129.102 M289.042 122.126 C 289.030 122.514,288.964 122.626,288.882 122.396 C 288.805 122.181,288.566 121.865,288.351 121.694 C 288.017 121.428,288.040 121.388,288.511 121.423 C 288.923 121.454,289.057 121.632,289.042 122.126 M265.814 136.486 C 265.454 140.456,258.823 142.571,257.195 139.236 C 256.098 136.990,257.423 136.134,263.281 135.306 C 264.642 135.113,265.801 134.942,265.856 134.926 C 265.912 134.909,265.893 135.611,265.814 136.486 M343.041 136.626 C 342.761 140.345,336.817 142.688,334.649 139.933 C 332.954 137.777,334.459 136.451,339.321 135.818 C 341.099 135.587,342.605 135.346,342.667 135.284 C 342.976 134.976,343.125 135.511,343.041 136.626 " stroke="none" fill="#1a3966" fill-rule="evenodd"></path><path id="path2" d="M79.492 93.937 C 79.886 93.996,80.531 93.996,80.924 93.937 C 81.318 93.877,80.996 93.828,80.208 93.828 C 79.421 93.828,79.098 93.877,79.492 93.937 M213.354 112.952 C 214.039 113.006,215.094 113.005,215.698 112.951 C 216.302 112.896,215.742 112.852,214.453 112.853 C 213.164 112.854,212.670 112.898,213.354 112.952 M237.442 119.983 C 238.054 120.038,238.992 120.037,239.525 119.981 C 240.058 119.925,239.557 119.880,238.411 119.881 C 237.266 119.882,236.829 119.928,237.442 119.983 M312.048 120.239 C 312.444 120.299,313.030 120.297,313.350 120.235 C 313.670 120.174,313.346 120.125,312.630 120.127 C 311.914 120.129,311.652 120.179,312.048 120.239 M338.223 120.243 C 338.836 120.298,339.773 120.297,340.306 120.241 C 340.840 120.185,340.339 120.140,339.193 120.141 C 338.047 120.142,337.611 120.188,338.223 120.243 M162.868 125.000 C 162.868 127.507,162.907 128.532,162.954 127.279 C 163.002 126.025,163.002 123.975,162.954 122.721 C 162.907 121.468,162.868 122.493,162.868 125.000 M222.451 123.884 L 222.396 126.805 219.596 126.889 L 216.797 126.973 219.605 127.028 C 222.917 127.093,222.705 127.331,222.591 123.680 L 222.506 120.964 222.451 123.884 M205.827 124.089 C 205.827 125.664,205.870 126.275,205.922 125.446 C 205.974 124.617,205.973 123.328,205.921 122.582 C 205.868 121.835,205.826 122.513,205.827 124.089 M95.898 126.482 C 96.149 126.547,96.559 126.547,96.810 126.482 C 97.061 126.416,96.855 126.363,96.354 126.363 C 95.853 126.363,95.648 126.416,95.898 126.482 M199.585 130.859 C 199.585 133.151,199.625 134.054,199.673 132.865 C 199.721 131.677,199.721 129.802,199.673 128.699 C 199.624 127.595,199.584 128.568,199.585 130.859 M206.971 127.012 C 207.439 127.070,208.142 127.068,208.533 127.009 C 208.925 126.950,208.542 126.902,207.682 126.904 C 206.823 126.905,206.503 126.954,206.971 127.012 M321.944 128.312 C 322.340 128.372,322.925 128.370,323.246 128.308 C 323.566 128.247,323.242 128.198,322.526 128.199 C 321.810 128.201,321.548 128.252,321.944 128.312 M333.138 128.832 C 333.532 128.892,334.176 128.892,334.570 128.832 C 334.964 128.773,334.642 128.724,333.854 128.724 C 333.066 128.724,332.744 128.773,333.138 128.832 M247.750 131.510 C 247.750 132.871,247.794 133.428,247.848 132.747 C 247.901 132.067,247.901 130.954,247.848 130.273 C 247.794 129.593,247.750 130.150,247.750 131.510 M231.585 131.380 C 231.587 132.096,231.637 132.358,231.697 131.963 C 231.757 131.567,231.756 130.981,231.694 130.660 C 231.632 130.340,231.583 130.664,231.585 131.380 M199.545 137.109 C 199.548 137.682,199.601 137.886,199.663 137.562 C 199.726 137.238,199.723 136.769,199.658 136.520 C 199.593 136.271,199.542 136.536,199.545 137.109 M222.394 142.265 L 222.523 145.182 222.599 142.471 C 222.641 140.979,222.583 139.666,222.471 139.553 C 222.358 139.440,222.324 140.660,222.394 142.265 M276.120 141.146 C 276.120 141.934,276.169 142.256,276.228 141.862 C 276.288 141.468,276.288 140.824,276.228 140.430 C 276.169 140.036,276.120 140.358,276.120 141.146 M199.563 143.490 C 199.563 144.421,199.610 144.801,199.668 144.336 C 199.725 143.870,199.725 143.109,199.668 142.643 C 199.610 142.178,199.563 142.559,199.563 143.490 M273.258 143.359 C 273.259 144.219,273.308 144.539,273.366 144.071 C 273.424 143.603,273.423 142.900,273.363 142.508 C 273.304 142.117,273.256 142.500,273.258 143.359 M276.102 144.271 C 276.102 144.772,276.156 144.977,276.221 144.727 C 276.287 144.476,276.287 144.066,276.221 143.815 C 276.156 143.564,276.102 143.770,276.102 144.271 M181.185 145.245 C 182.080 145.296,183.545 145.296,184.440 145.245 C 185.335 145.194,184.603 145.152,182.813 145.152 C 181.022 145.152,180.290 145.194,181.185 145.245 M268.034 145.245 C 268.857 145.296,270.205 145.296,271.029 145.245 C 271.852 145.193,271.178 145.151,269.531 145.151 C 267.884 145.151,267.210 145.193,268.034 145.245 M281.709 145.236 C 282.033 145.299,282.501 145.296,282.750 145.231 C 282.999 145.166,282.734 145.115,282.161 145.118 C 281.589 145.121,281.385 145.174,281.709 145.236 M258.529 146.278 C 258.851 146.340,259.378 146.340,259.701 146.278 C 260.023 146.215,259.759 146.165,259.115 146.165 C 258.470 146.165,258.206 146.215,258.529 146.278 M311.914 146.286 C 312.666 146.338,313.896 146.338,314.648 146.286 C 315.400 146.233,314.785 146.190,313.281 146.190 C 311.777 146.190,311.162 146.233,311.914 146.286 M81.440 158.521 C 81.902 158.579,82.722 158.580,83.262 158.523 C 83.803 158.467,83.424 158.420,82.422 158.419 C 81.419 158.418,80.977 158.464,81.440 158.521 " stroke="none" fill="#9da0a6" fill-rule="evenodd"></path><path id="path3" d="M82.100 93.937 C 82.496 93.997,83.082 93.995,83.402 93.933 C 83.722 93.872,83.398 93.823,82.682 93.824 C 81.966 93.826,81.704 93.877,82.100 93.937 M84.961 94.190 C 85.212 94.255,85.622 94.255,85.872 94.190 C 86.123 94.124,85.918 94.071,85.417 94.071 C 84.915 94.071,84.710 94.124,84.961 94.190 M81.192 96.545 C 81.804 96.600,82.742 96.599,83.275 96.543 C 83.808 96.488,83.307 96.442,82.161 96.443 C 81.016 96.444,80.579 96.490,81.192 96.545 M201.237 109.559 C 201.559 109.621,202.087 109.621,202.409 109.559 C 202.731 109.497,202.467 109.446,201.823 109.446 C 201.178 109.446,200.915 109.497,201.237 109.559 M140.572 109.829 C 141.761 109.878,143.636 109.877,144.739 109.829 C 145.842 109.780,144.870 109.741,142.578 109.741 C 140.286 109.741,139.384 109.781,140.572 109.829 M224.081 127.734 C 224.081 137.331,224.114 141.219,224.154 136.374 C 224.193 131.530,224.193 123.678,224.154 118.926 C 224.114 114.174,224.081 118.138,224.081 127.734 M216.771 117.057 C 216.771 119.206,216.812 120.050,216.860 118.933 C 216.909 117.817,216.909 116.059,216.860 115.027 C 216.810 113.995,216.770 114.909,216.771 117.057 M231.604 116.406 C 231.604 117.767,231.648 118.324,231.702 117.643 C 231.755 116.963,231.755 115.850,231.702 115.169 C 231.648 114.489,231.604 115.046,231.604 116.406 M214.063 114.792 C 214.063 114.955,213.887 115.020,213.672 114.938 C 213.457 114.855,213.281 114.918,213.281 115.076 C 213.281 115.235,213.450 115.365,213.657 115.365 C 214.081 115.365,214.456 114.890,214.219 114.653 C 214.133 114.567,214.063 114.630,214.063 114.792 M289.396 120.244 C 290.081 120.298,291.135 120.297,291.740 120.242 C 292.344 120.188,291.784 120.144,290.495 120.145 C 289.206 120.145,288.711 120.190,289.396 120.244 M179.010 124.219 C 179.010 126.296,179.050 127.145,179.100 126.107 C 179.149 125.068,179.149 123.369,179.100 122.331 C 179.050 121.292,179.010 122.142,179.010 124.219 M206.971 121.022 C 207.439 121.080,208.142 121.079,208.533 121.019 C 208.925 120.960,208.542 120.913,207.682 120.914 C 206.823 120.915,206.503 120.964,206.971 121.022 M288.057 121.442 C 288.108 121.475,288.356 121.659,288.607 121.850 C 288.990 122.144,289.063 122.141,289.063 121.832 C 289.063 121.630,288.815 121.446,288.512 121.424 C 288.210 121.401,288.005 121.409,288.057 121.442 M91.826 123.911 C 91.753 124.029,92.040 124.074,92.462 124.012 C 92.884 123.950,93.229 123.854,93.229 123.799 C 93.229 123.600,91.955 123.702,91.826 123.911 M312.959 125.965 C 313.283 126.028,313.751 126.025,314.000 125.960 C 314.249 125.895,313.984 125.844,313.411 125.847 C 312.839 125.850,312.635 125.903,312.959 125.965 M338.346 126.228 C 338.740 126.288,339.385 126.288,339.779 126.228 C 340.173 126.169,339.850 126.120,339.063 126.120 C 338.275 126.120,337.952 126.169,338.346 126.228 M93.555 126.489 C 93.949 126.548,94.593 126.548,94.987 126.489 C 95.381 126.429,95.059 126.380,94.271 126.380 C 93.483 126.380,93.161 126.429,93.555 126.489 M97.461 126.482 C 97.712 126.547,98.122 126.547,98.372 126.482 C 98.623 126.416,98.418 126.363,97.917 126.363 C 97.415 126.363,97.210 126.416,97.461 126.482 M235.355 126.747 C 235.679 126.809,236.147 126.807,236.396 126.741 C 236.645 126.676,236.380 126.625,235.807 126.628 C 235.234 126.631,235.031 126.684,235.355 126.747 M94.469 127.007 C 94.793 127.069,95.262 127.067,95.511 127.002 C 95.760 126.937,95.495 126.886,94.922 126.889 C 94.349 126.891,94.145 126.945,94.469 127.007 M216.776 132.031 C 216.776 134.824,216.814 135.967,216.861 134.570 C 216.908 133.174,216.908 130.889,216.861 129.492 C 216.814 128.096,216.776 129.238,216.776 132.031 M318.164 128.316 C 318.773 128.371,319.769 128.371,320.378 128.316 C 320.986 128.261,320.488 128.216,319.271 128.216 C 318.053 128.216,317.555 128.261,318.164 128.316 M162.856 131.901 C 162.856 133.333,162.900 133.886,162.953 133.129 C 163.005 132.373,163.005 131.201,162.951 130.525 C 162.898 129.850,162.855 130.469,162.856 131.901 M350.356 132.422 C 350.356 133.854,350.400 134.407,350.453 133.650 C 350.505 132.893,350.505 131.721,350.451 131.046 C 350.398 130.370,350.355 130.990,350.356 132.422 M231.622 138.411 C 231.622 141.706,231.660 143.017,231.705 141.326 C 231.750 139.635,231.750 136.940,231.705 135.337 C 231.659 133.734,231.622 135.117,231.622 138.411 M261.523 135.596 C 261.774 135.662,262.184 135.662,262.435 135.596 C 262.686 135.531,262.480 135.477,261.979 135.477 C 261.478 135.477,261.273 135.531,261.523 135.596 M97.075 138.210 C 97.543 138.268,98.246 138.266,98.637 138.207 C 99.029 138.147,98.646 138.100,97.786 138.102 C 96.927 138.103,96.607 138.152,97.075 138.210 M313.086 140.805 C 313.337 140.870,313.747 140.870,313.997 140.805 C 314.248 140.739,314.043 140.685,313.542 140.685 C 313.040 140.685,312.835 140.739,313.086 140.805 M343.295 144.661 C 343.298 145.234,343.351 145.438,343.413 145.114 C 343.476 144.790,343.473 144.321,343.408 144.072 C 343.343 143.824,343.292 144.089,343.295 144.661 M144.206 145.508 C 147.393 145.549,152.607 145.549,155.794 145.508 C 158.981 145.466,156.374 145.432,150.000 145.432 C 143.626 145.432,141.019 145.466,144.206 145.508 M105.847 150.846 L 104.818 151.953 105.924 150.924 C 106.954 149.966,107.151 149.740,106.954 149.740 C 106.911 149.740,106.413 150.238,105.847 150.846 " stroke="none" fill="#7c7c84" fill-rule="evenodd"></path><path id="path4" d="M77.409 96.794 C 77.660 96.860,78.070 96.860,78.320 96.794 C 78.571 96.729,78.366 96.675,77.865 96.675 C 77.363 96.675,77.158 96.729,77.409 96.794 M84.701 96.794 C 84.951 96.860,85.361 96.860,85.612 96.794 C 85.863 96.729,85.658 96.675,85.156 96.675 C 84.655 96.675,84.450 96.729,84.701 96.794 M57.017 104.102 L 56.120 105.078 57.096 104.181 C 58.005 103.345,58.193 103.125,57.994 103.125 C 57.950 103.125,57.511 103.564,57.017 104.102 M59.493 105.534 L 58.464 106.641 59.570 105.611 C 60.600 104.654,60.797 104.427,60.600 104.427 C 60.557 104.427,60.059 104.925,59.493 105.534 M225.858 110.350 C 226.975 110.399,228.733 110.399,229.765 110.349 C 230.796 110.300,229.883 110.260,227.734 110.260 C 225.586 110.261,224.742 110.301,225.858 110.350 M209.200 114.714 C 209.201 115.716,209.248 116.094,209.305 115.554 C 209.361 115.014,209.360 114.193,209.303 113.731 C 209.245 113.269,209.199 113.711,209.200 114.714 M166.606 120.501 C 167.074 120.559,167.777 120.558,168.169 120.499 C 168.560 120.439,168.177 120.392,167.318 120.393 C 166.458 120.395,166.138 120.443,166.606 120.501 M186.566 125.260 C 186.566 127.910,186.605 128.994,186.652 127.669 C 186.700 126.344,186.700 124.176,186.652 122.852 C 186.605 121.527,186.566 122.611,186.566 125.260 M189.128 120.763 C 189.665 120.819,190.544 120.819,191.081 120.763 C 191.618 120.706,191.178 120.660,190.104 120.660 C 189.030 120.660,188.590 120.706,189.128 120.763 M202.139 120.762 L 204.930 120.851 205.018 123.381 L 205.105 125.911 205.092 123.307 L 205.078 120.703 202.214 120.689 L 199.349 120.674 202.139 120.762 M276.160 130.339 C 276.160 135.638,276.194 137.769,276.237 135.074 C 276.279 132.379,276.279 128.043,276.237 125.439 C 276.194 122.834,276.159 125.039,276.160 130.339 M94.076 121.273 C 94.326 121.339,94.736 121.339,94.987 121.273 C 95.238 121.208,95.033 121.154,94.531 121.154 C 94.030 121.154,93.825 121.208,94.076 121.273 M96.680 121.280 C 97.074 121.340,97.718 121.340,98.112 121.280 C 98.506 121.221,98.184 121.172,97.396 121.172 C 96.608 121.172,96.286 121.221,96.680 121.280 M101.107 121.534 C 101.357 121.599,101.768 121.599,102.018 121.534 C 102.269 121.468,102.064 121.415,101.563 121.415 C 101.061 121.415,100.856 121.468,101.107 121.534 M95.638 121.804 C 96.175 121.860,97.054 121.860,97.591 121.804 C 98.128 121.748,97.689 121.702,96.615 121.702 C 95.540 121.702,95.101 121.748,95.638 121.804 M252.718 122.982 L 251.953 123.828 252.799 123.063 C 253.265 122.643,253.646 122.262,253.646 122.217 C 253.646 122.016,253.431 122.193,252.718 122.982 M94.596 123.877 C 94.847 123.943,95.257 123.943,95.508 123.877 C 95.758 123.812,95.553 123.758,95.052 123.758 C 94.551 123.758,94.346 123.812,94.596 123.877 M50.321 125.000 C 50.321 125.501,50.374 125.706,50.440 125.456 C 50.505 125.205,50.505 124.795,50.440 124.544 C 50.374 124.294,50.321 124.499,50.321 125.000 M170.684 130.729 C 170.684 133.809,170.721 135.068,170.767 133.529 C 170.813 131.989,170.813 129.469,170.767 127.930 C 170.721 126.390,170.684 127.650,170.684 130.729 M97.461 127.002 C 97.712 127.068,98.122 127.068,98.372 127.002 C 98.623 126.937,98.418 126.883,97.917 126.883 C 97.415 126.883,97.210 126.937,97.461 127.002 M189.252 127.011 C 189.714 127.068,190.535 127.069,191.075 127.013 C 191.615 126.957,191.237 126.910,190.234 126.908 C 189.232 126.907,188.790 126.953,189.252 127.011 M209.189 128.516 C 209.191 129.232,209.242 129.494,209.301 129.098 C 209.361 128.702,209.360 128.116,209.298 127.796 C 209.236 127.476,209.187 127.799,209.189 128.516 M273.286 132.813 C 273.286 135.605,273.324 136.748,273.371 135.352 C 273.418 133.955,273.418 131.670,273.371 130.273 C 273.324 128.877,273.286 130.020,273.286 132.813 M328.971 128.837 C 329.652 128.891,330.765 128.891,331.445 128.837 C 332.126 128.784,331.569 128.740,330.208 128.740 C 328.848 128.740,328.291 128.784,328.971 128.837 M260.352 130.392 C 260.674 130.454,261.201 130.454,261.523 130.392 C 261.846 130.330,261.582 130.279,260.938 130.279 C 260.293 130.279,260.029 130.330,260.352 130.392 M283.915 137.546 C 283.859 144.410,283.817 145.024,283.398 145.133 C 282.971 145.245,282.972 145.254,283.407 145.282 C 284.115 145.328,284.128 145.161,284.049 137.366 L 283.976 130.078 283.915 137.546 M209.198 132.031 C 209.198 132.962,209.245 133.343,209.303 132.878 C 209.361 132.412,209.361 131.650,209.303 131.185 C 209.245 130.719,209.198 131.100,209.198 132.031 M186.572 138.151 C 186.572 141.875,186.609 143.362,186.653 141.456 C 186.698 139.550,186.698 136.503,186.653 134.685 C 186.608 132.867,186.572 134.427,186.572 138.151 M239.927 133.854 C 239.927 134.785,239.974 135.166,240.032 134.701 C 240.090 134.235,240.090 133.473,240.032 133.008 C 239.974 132.542,239.927 132.923,239.927 133.854 M300.092 135.286 C 300.092 136.576,300.136 137.136,300.190 136.531 C 300.245 135.927,300.246 134.872,300.192 134.188 C 300.138 133.503,300.093 133.997,300.092 135.286 M247.763 138.151 C 247.763 140.586,247.802 141.617,247.850 140.442 C 247.898 139.268,247.898 137.276,247.850 136.015 C 247.802 134.755,247.763 135.716,247.763 138.151 M325.085 137.891 C 325.087 138.893,325.134 139.271,325.190 138.731 C 325.246 138.191,325.245 137.371,325.188 136.908 C 325.130 136.446,325.084 136.888,325.085 137.891 M138.388 140.885 C 138.388 143.392,138.427 144.417,138.475 143.164 C 138.523 141.911,138.523 139.860,138.475 138.607 C 138.427 137.354,138.388 138.379,138.388 140.885 M326.646 138.802 C 326.646 139.733,326.693 140.114,326.751 139.648 C 326.809 139.183,326.809 138.421,326.751 137.956 C 326.693 137.490,326.646 137.871,326.646 138.802 M301.732 137.956 C 301.665 138.063,302.625 138.120,303.865 138.081 C 308.026 137.952,308.488 137.855,305.159 137.807 C 303.341 137.782,301.799 137.848,301.732 137.956 M199.568 139.974 C 199.569 141.120,199.615 141.556,199.670 140.944 C 199.725 140.331,199.724 139.394,199.668 138.860 C 199.613 138.327,199.567 138.828,199.568 139.974 M273.266 139.974 C 273.267 141.120,273.313 141.556,273.368 140.944 C 273.423 140.331,273.422 139.394,273.366 138.860 C 273.310 138.327,273.265 138.828,273.266 139.974 M161.524 139.193 C 161.527 139.766,161.580 139.969,161.643 139.645 C 161.705 139.321,161.702 138.853,161.637 138.604 C 161.572 138.355,161.521 138.620,161.524 139.193 M300.094 142.448 C 300.094 143.809,300.138 144.365,300.191 143.685 C 300.245 143.005,300.245 141.891,300.191 141.211 C 300.138 140.531,300.094 141.087,300.094 142.448 M350.573 143.417 L 350.521 145.558 346.940 145.639 L 343.359 145.719 346.948 145.776 C 351.085 145.842,350.847 146.005,350.715 143.205 L 350.624 141.276 350.573 143.417 M179.138 143.424 C 179.063 143.932,179.234 144.945,179.429 145.149 C 179.549 145.274,179.553 144.958,179.437 144.446 C 179.322 143.934,179.292 143.451,179.371 143.372 C 179.449 143.294,179.436 143.229,179.340 143.229 C 179.245 143.229,179.154 143.317,179.138 143.424 M161.524 144.401 C 161.527 144.974,161.580 145.178,161.643 144.854 C 161.705 144.530,161.702 144.061,161.637 143.812 C 161.572 143.563,161.521 143.828,161.524 144.401 M247.692 144.199 L 247.656 145.038 243.815 145.118 L 239.974 145.197 243.823 145.255 C 247.958 145.317,248.092 145.274,247.843 143.964 C 247.754 143.500,247.719 143.554,247.692 144.199 M193.827 145.246 C 194.944 145.295,196.701 145.295,197.733 145.245 C 198.765 145.196,197.852 145.156,195.703 145.156 C 193.555 145.157,192.710 145.197,193.827 145.246 M225.977 145.245 C 227.015 145.295,228.714 145.295,229.753 145.245 C 230.791 145.196,229.941 145.156,227.865 145.156 C 225.788 145.156,224.938 145.196,225.977 145.245 M277.279 145.243 C 277.887 145.298,278.883 145.298,279.492 145.243 C 280.101 145.188,279.603 145.143,278.385 145.143 C 277.168 145.143,276.670 145.188,277.279 145.243 M294.348 145.246 C 295.464 145.295,297.222 145.295,298.254 145.245 C 299.286 145.196,298.372 145.156,296.224 145.156 C 294.076 145.157,293.231 145.197,294.348 145.246 M256.709 146.278 C 257.033 146.340,257.501 146.338,257.750 146.273 C 257.999 146.207,257.734 146.157,257.161 146.159 C 256.589 146.162,256.385 146.216,256.709 146.278 M59.625 149.284 C 60.263 149.964,60.820 150.521,60.862 150.521 C 61.057 150.521,60.850 150.287,59.701 149.208 L 58.464 148.047 59.625 149.284 M84.961 158.252 C 85.212 158.318,85.622 158.318,85.872 158.252 C 86.123 158.187,85.918 158.133,85.417 158.133 C 84.915 158.133,84.710 158.187,84.961 158.252 M79.492 158.513 C 79.743 158.578,80.153 158.578,80.404 158.513 C 80.654 158.447,80.449 158.394,79.948 158.394 C 79.447 158.394,79.242 158.447,79.492 158.513 M85.221 160.857 C 85.472 160.922,85.882 160.922,86.133 160.857 C 86.383 160.791,86.178 160.738,85.677 160.738 C 85.176 160.738,84.971 160.791,85.221 160.857 " stroke="none" fill="#caccd0" fill-rule="evenodd"></path></g></svg>