<svg id="svg" version="1.1" xmlns="http://www.w3.org/2000/svg" xmlns:xlink="http://www.w3.org/1999/xlink" width="400" height="266.6666666666667" viewBox="0, 0, 400,266.6666666666667"><g id="svgg"><path id="path0" d="M358.073 74.164 L 355.339 74.274 353.516 76.373 C 350.554 79.784,342.183 90.148,340.724 92.211 C 340.277 92.842,338.754 94.892,337.339 96.766 C 335.923 98.640,333.833 101.452,332.693 103.016 C 326.774 111.137,325.532 112.841,323.781 115.234 C 322.734 116.667,320.844 119.245,319.582 120.964 C 318.319 122.682,316.561 125.085,315.674 126.302 C 314.788 127.520,313.207 129.688,312.161 131.120 C 311.116 132.552,309.478 134.837,308.522 136.198 C 307.566 137.559,305.838 139.961,304.682 141.536 C 303.525 143.112,302.263 144.875,301.876 145.454 C 300.437 147.607,297.043 152.083,296.850 152.083 C 296.627 152.083,291.140 144.113,291.155 143.811 C 291.161 143.706,291.689 143.288,292.330 142.881 C 296.204 140.427,297.341 133.183,294.451 129.373 C 291.918 126.034,289.027 125.300,277.669 125.109 L 270.313 124.986 270.313 139.316 L 270.313 153.646 274.219 153.646 L 278.125 153.646 278.125 149.507 C 278.125 144.698,277.825 145.089,281.450 145.171 L 283.603 145.219 285.991 149.237 C 288.859 154.065,288.130 153.555,292.265 153.623 C 294.151 153.655,295.735 153.721,295.785 153.772 C 295.883 153.869,292.646 158.224,290.546 160.822 C 289.859 161.673,288.423 163.483,287.357 164.844 L 285.419 167.318 286.294 167.466 C 286.776 167.548,302.173 167.630,320.510 167.648 L 353.851 167.681 353.976 167.109 C 354.266 165.788,356.384 157.847,357.672 153.255 C 358.435 150.534,359.611 146.198,360.285 143.620 C 360.960 141.042,362.087 136.839,362.791 134.280 C 364.480 128.141,368.095 114.673,369.022 111.068 C 369.428 109.492,370.185 106.738,370.705 104.948 C 371.981 100.559,373.815 93.936,374.635 90.755 C 375.004 89.323,375.581 87.214,375.916 86.068 C 376.251 84.922,376.954 82.344,377.478 80.339 C 378.003 78.333,378.581 76.147,378.763 75.481 C 379.093 74.276,379.091 74.269,378.415 74.140 C 377.611 73.988,362.019 74.006,358.073 74.164 M359.375 74.732 C 359.375 74.352,360.998 74.519,361.127 74.912 C 361.243 75.267,360.169 76.341,359.877 76.160 C 359.438 75.889,358.846 76.841,359.127 77.367 C 359.484 78.034,359.198 78.518,358.694 78.101 C 358.489 77.930,358.245 77.866,358.153 77.958 C 358.061 78.050,358.137 78.125,358.322 78.125 C 358.591 78.125,358.593 78.203,358.333 78.516 C 358.155 78.730,357.877 78.904,357.716 78.902 C 357.539 78.900,357.560 78.811,357.769 78.678 C 358.049 78.501,358.036 78.427,357.704 78.300 C 357.477 78.213,357.292 78.014,357.292 77.857 C 357.292 77.700,357.436 77.660,357.617 77.769 C 357.811 77.885,357.784 77.760,357.552 77.459 C 357.025 76.777,356.714 76.568,356.250 76.584 C 356.011 76.592,356.086 76.707,356.445 76.880 C 357.170 77.230,357.192 77.639,356.510 78.065 C 355.812 78.501,355.849 78.902,356.576 78.768 C 357.151 78.663,357.150 78.670,356.510 79.193 C 356.073 79.551,355.966 79.770,356.185 79.859 C 356.364 79.932,356.510 80.106,356.510 80.245 C 356.510 80.385,356.384 80.421,356.229 80.325 C 356.056 80.219,355.980 80.344,356.032 80.650 C 356.078 80.924,355.914 81.457,355.667 81.834 C 355.237 82.490,355.239 82.527,355.710 82.676 C 356.444 82.909,356.921 83.550,356.324 83.501 C 356.069 83.481,355.885 83.598,355.916 83.762 C 355.948 83.936,355.765 84.007,355.478 83.932 C 355.206 83.861,355.042 83.650,355.114 83.464 C 355.339 82.879,354.815 82.822,354.020 83.346 C 353.599 83.624,353.410 83.852,353.599 83.852 C 353.789 83.853,354.125 83.673,354.346 83.451 C 354.568 83.229,354.820 83.119,354.906 83.205 C 354.992 83.291,354.891 83.471,354.680 83.604 C 354.469 83.737,354.418 83.848,354.567 83.850 C 354.716 83.852,354.854 84.082,354.875 84.360 C 354.901 84.700,354.791 84.819,354.541 84.724 C 354.337 84.645,354.236 84.473,354.318 84.341 C 354.399 84.210,354.047 84.337,353.535 84.625 C 353.023 84.912,352.604 85.044,352.604 84.917 C 352.604 84.791,352.194 84.688,351.693 84.688 C 350.961 84.688,350.781 84.788,350.781 85.198 C 350.781 85.521,350.670 85.639,350.477 85.520 C 350.278 85.397,350.224 85.468,350.322 85.723 C 350.405 85.939,350.382 86.262,350.271 86.441 C 350.136 86.659,350.027 86.544,349.941 86.090 C 349.858 85.661,349.982 85.217,350.280 84.873 C 350.543 84.570,350.678 84.147,350.587 83.911 C 350.477 83.625,350.391 83.593,350.318 83.813 C 350.236 84.057,350.122 84.064,349.852 83.839 C 349.579 83.613,349.399 83.636,349.096 83.940 C 348.535 84.500,348.601 84.698,349.284 84.506 C 349.691 84.391,349.762 84.416,349.517 84.585 C 349.247 84.773,349.232 84.955,349.452 85.366 C 349.919 86.239,349.783 86.321,349.097 85.580 C 348.458 84.891,348.185 82.886,348.780 83.254 C 348.929 83.346,348.957 83.281,348.846 83.102 C 348.740 82.930,348.793 82.621,348.963 82.416 C 349.323 81.982,350.864 81.167,350.640 81.528 C 350.558 81.662,350.614 81.771,350.766 81.771 C 351.127 81.771,351.117 81.430,350.745 81.058 C 350.169 80.481,355.339 74.743,356.437 74.741 C 357.034 74.740,357.015 75.427,356.407 75.832 C 356.257 75.932,356.211 76.089,356.303 76.182 C 356.553 76.432,357.161 75.969,357.161 75.529 C 357.161 74.964,358.323 74.455,358.903 74.766 C 359.226 74.938,359.375 74.928,359.375 74.732 M359.961 76.735 C 359.394 76.964,359.610 77.302,360.221 77.142 C 360.770 76.999,360.779 77.017,360.370 77.427 C 359.829 77.968,359.732 77.971,359.532 77.450 C 359.342 76.955,359.547 76.555,359.976 76.583 C 360.200 76.598,360.196 76.640,359.961 76.735 M353.906 77.793 C 353.906 77.928,354.053 78.044,354.232 78.051 C 354.411 78.057,354.762 78.148,355.013 78.252 C 355.286 78.366,355.469 78.326,355.469 78.153 C 355.469 77.994,355.303 77.865,355.099 77.865 C 354.896 77.865,354.545 77.793,354.318 77.707 C 354.092 77.620,353.906 77.659,353.906 77.793 M355.469 78.999 C 355.469 79.211,355.322 79.443,355.143 79.515 C 354.939 79.598,354.927 79.654,355.111 79.667 C 355.563 79.699,356.071 78.987,355.742 78.784 C 355.592 78.691,355.469 78.788,355.469 78.999 M353.992 80.242 C 354.065 80.475,353.994 80.797,353.834 80.958 C 353.627 81.165,353.625 81.250,353.826 81.250 C 354.244 81.250,354.419 80.609,354.118 80.185 C 353.906 79.886,353.882 79.897,353.992 80.242 M354.879 80.405 C 355.023 80.781,355.515 80.722,355.651 80.313 C 355.697 80.174,355.513 80.060,355.241 80.060 C 354.937 80.060,354.798 80.193,354.879 80.405 M357.249 81.013 C 356.957 81.197,357.056 81.822,357.422 82.097 C 357.565 82.205,357.396 82.253,357.045 82.203 C 356.694 82.154,356.363 81.949,356.309 81.747 C 356.232 81.462,356.272 81.468,356.487 81.771 C 356.791 82.201,356.851 82.016,356.775 80.893 C 356.732 80.245,356.776 80.193,357.110 80.502 C 357.327 80.704,357.388 80.926,357.249 81.013 M353.036 81.966 C 352.970 82.074,353.252 82.174,353.663 82.189 C 354.075 82.204,354.349 82.116,354.274 81.993 C 354.104 81.719,353.200 81.699,353.036 81.966 M350.521 83.041 C 350.521 83.167,350.687 83.408,350.891 83.577 C 351.195 83.829,351.236 83.788,351.121 83.348 C 350.984 82.825,350.521 82.588,350.521 83.041 M352.148 83.506 C 351.786 83.652,351.698 84.375,352.043 84.375 C 352.164 84.375,352.475 84.141,352.734 83.854 C 353.208 83.330,352.956 83.180,352.148 83.506 M362.079 117.638 C 358.777 126.047,355.158 128.099,345.679 126.936 C 336.115 125.763,331.662 126.560,327.063 130.265 C 326.171 130.984,325.508 131.398,325.590 131.184 C 325.672 130.970,325.994 129.931,326.305 128.874 C 329.181 119.110,335.515 115.586,347.526 117.069 C 355.410 118.042,359.416 117.704,361.979 115.852 C 363.014 115.103,363.022 115.235,362.079 117.638 M49.740 124.827 C 39.672 127.763,35.325 137.833,40.261 146.787 C 44.601 154.661,57.150 156.578,64.794 150.536 C 66.493 149.193,66.518 149.355,64.175 146.594 C 61.983 144.010,62.089 144.078,61.345 144.774 C 55.632 150.120,45.946 146.160,46.418 138.672 C 46.859 131.664,54.305 128.908,60.617 133.416 C 61.278 133.888,61.816 134.111,61.945 133.967 C 62.064 133.833,63.078 132.682,64.198 131.409 L 66.234 129.095 65.343 128.343 C 61.640 125.215,54.177 123.533,49.740 124.827 M25.693 128.050 C 25.474 132.346,25.473 142.877,25.692 148.917 L 25.863 153.646 29.859 153.646 L 33.854 153.646 33.819 144.466 C 33.799 139.417,33.712 132.945,33.624 130.083 L 33.464 124.879 29.663 124.800 L 25.863 124.720 25.693 128.050 M98.985 133.112 C 98.968 137.745,99.029 144.246,99.120 147.558 L 99.285 153.580 109.864 153.548 L 120.443 153.516 120.516 150.590 L 120.590 147.665 113.876 147.596 L 107.161 147.526 107.135 143.490 C 107.121 141.270,107.062 136.201,107.005 132.227 L 106.901 125.000 106.250 124.991 C 105.892 124.986,104.118 124.916,102.308 124.835 L 99.017 124.687 98.985 133.112 M69.743 126.757 C 69.597 128.918,69.769 153.189,69.932 153.352 C 69.996 153.416,75.430 153.524,82.008 153.592 L 93.967 153.715 93.990 150.849 L 94.012 147.984 93.035 147.835 C 92.497 147.754,88.840 147.675,84.907 147.661 C 80.974 147.646,77.731 147.610,77.701 147.580 C 77.671 147.549,77.713 146.306,77.795 144.816 L 77.945 142.108 84.285 142.285 L 90.625 142.462 90.625 139.460 L 90.625 136.458 84.283 136.458 L 77.941 136.458 77.767 133.970 C 77.535 130.670,77.109 130.904,82.941 131.123 C 85.698 131.226,89.141 131.226,90.591 131.122 L 93.229 130.933 93.229 127.984 L 93.229 125.034 81.545 125.016 L 69.862 124.998 69.743 126.757 M133.727 127.279 C 132.023 131.199,129.420 137.064,128.902 138.151 C 128.629 138.724,127.569 141.126,126.547 143.490 C 125.525 145.853,124.475 148.255,124.214 148.828 C 122.634 152.290,122.145 153.482,122.257 153.594 C 122.327 153.663,124.212 153.616,126.447 153.488 L 130.510 153.255 131.566 150.712 L 132.621 148.168 139.158 148.238 L 145.694 148.307 146.740 150.823 C 147.665 153.047,147.874 153.357,148.535 153.493 C 149.732 153.737,155.990 153.669,155.990 153.412 C 155.990 153.217,152.629 145.744,149.420 138.802 C 148.990 137.871,148.318 136.348,147.928 135.417 C 147.537 134.486,146.296 131.761,145.170 129.362 L 143.123 125.000 138.920 125.000 L 134.718 125.000 133.727 127.279 M159.248 125.256 C 159.161 125.396,159.114 131.766,159.143 139.410 L 159.197 153.308 162.832 153.474 C 164.831 153.564,166.571 153.575,166.697 153.497 C 166.824 153.419,166.927 149.612,166.927 145.037 C 166.927 136.970,166.995 136.194,167.615 137.187 C 167.776 137.444,168.771 138.654,169.826 139.874 C 170.881 141.095,172.507 143.010,173.438 144.130 C 175.509 146.623,176.588 147.896,179.377 151.134 L 181.540 153.646 184.786 153.646 L 188.031 153.646 187.999 139.453 L 187.966 125.260 186.496 125.244 C 185.688 125.235,184.011 125.206,182.771 125.179 L 180.516 125.130 180.341 128.776 C 180.245 130.781,180.205 134.268,180.253 136.524 C 180.300 138.780,180.277 140.626,180.201 140.625 C 180.126 140.625,178.427 138.728,176.425 136.410 C 174.424 134.091,172.186 131.542,171.452 130.746 C 170.718 129.949,169.790 128.887,169.388 128.385 C 168.987 127.884,168.127 126.917,167.477 126.237 L 166.296 125.000 162.851 125.000 C 160.878 125.000,159.338 125.109,159.248 125.256 M193.795 125.201 L 192.929 125.296 193.008 139.351 L 193.086 153.405 193.660 153.549 C 195.367 153.977,209.515 153.464,211.328 152.908 C 218.200 150.800,221.185 146.679,221.168 139.323 C 221.151 131.886,217.769 127.718,210.156 125.751 C 208.042 125.205,197.098 124.837,193.795 125.201 M233.773 125.181 C 233.590 125.477,229.198 135.292,224.707 145.443 C 222.996 149.310,221.475 152.690,221.327 152.955 C 220.916 153.690,221.032 153.706,225.338 153.506 L 229.362 153.319 230.371 150.890 L 231.380 148.462 237.732 148.385 C 245.044 148.296,244.172 147.964,245.587 151.367 L 246.426 153.385 247.757 153.396 C 248.490 153.401,250.361 153.474,251.915 153.556 L 254.742 153.707 254.546 153.090 C 254.439 152.751,253.913 151.536,253.378 150.391 C 252.843 149.245,252.027 147.428,251.565 146.354 C 251.103 145.280,250.398 143.698,249.998 142.839 C 248.945 140.577,246.762 135.739,244.270 130.143 L 242.095 125.260 240.750 125.260 C 240.009 125.260,238.173 125.185,236.667 125.093 C 234.971 124.989,233.871 125.023,233.773 125.181 M257.780 125.181 C 257.310 125.298,257.023 137.826,257.246 148.509 L 257.354 153.659 261.294 153.587 L 265.234 153.516 265.140 139.453 C 265.088 131.689,264.942 125.326,264.815 125.245 C 264.550 125.079,258.418 125.023,257.780 125.181 M355.350 132.297 C 353.304 136.437,351.541 138.369,348.511 139.789 L 347.005 140.495 339.323 140.511 C 327.741 140.535,324.374 141.208,321.118 144.150 C 319.775 145.363,319.748 145.330,320.336 143.209 C 322.948 133.782,331.879 128.842,342.615 130.886 C 347.085 131.737,352.546 131.595,354.688 130.571 C 356.803 129.560,356.759 129.445,355.350 132.297 M286.518 131.876 C 290.570 133.622,288.384 139.355,283.724 139.205 C 283.151 139.186,281.657 139.147,280.404 139.117 L 278.125 139.063 278.125 135.330 C 278.125 133.277,278.213 131.506,278.320 131.394 C 278.677 131.022,285.463 131.421,286.518 131.876 M207.813 131.896 C 211.180 132.632,212.981 134.889,213.216 138.669 C 213.607 144.930,210.465 147.479,202.707 147.194 L 201.117 147.135 200.979 142.529 C 200.903 139.995,200.902 136.509,200.976 134.781 L 201.112 131.641 204.006 131.669 C 205.598 131.685,207.311 131.787,207.813 131.896 M139.561 134.180 C 140.880 137.091,142.708 141.545,142.708 141.848 C 142.708 142.111,141.879 142.188,139.032 142.188 C 135.607 142.188,135.364 142.155,135.480 141.714 C 135.635 141.120,138.909 133.075,138.996 133.074 C 139.031 133.073,139.286 133.571,139.561 134.180 M239.928 138.018 C 240.859 140.236,241.574 142.127,241.517 142.219 C 241.443 142.339,234.659 142.323,234.190 142.202 C 234.159 142.194,234.556 141.221,235.072 140.039 C 235.587 138.857,236.159 137.480,236.343 136.979 C 237.871 132.802,237.721 132.759,239.928 138.018 M332.062 144.689 C 329.808 147.249,327.963 148.172,324.709 148.370 C 322.545 148.501,319.956 148.133,319.659 147.651 C 319.103 146.752,324.961 144.524,329.818 143.788 C 333.539 143.224,333.400 143.168,332.062 144.689 " stroke="none" fill="#153783" fill-rule="evenodd"></path><path id="path1" d="M0.000 133.333 L 0.000 266.667 200.000 266.667 L 400.000 266.667 400.000 133.333 L 400.000 0.000 200.000 0.000 L 0.000 0.000 0.000 133.333 M377.371 73.898 L 379.351 74.011 378.366 77.696 C 377.825 79.722,377.067 82.493,376.683 83.854 C 376.298 85.215,375.722 87.324,375.402 88.542 C 374.775 90.930,373.230 96.663,372.419 99.609 C 372.143 100.612,371.491 102.897,370.969 104.688 C 370.447 106.478,369.623 109.466,369.137 111.328 C 368.650 113.190,368.008 115.592,367.709 116.667 C 367.410 117.741,366.829 119.909,366.417 121.484 C 365.339 125.613,364.006 130.543,362.757 135.026 C 362.158 137.174,361.502 139.635,361.299 140.495 C 361.095 141.354,360.823 142.350,360.694 142.708 C 360.565 143.066,360.085 144.824,359.628 146.615 C 359.170 148.405,358.348 151.452,357.801 153.385 C 356.859 156.711,354.508 165.592,354.232 166.866 C 354.162 167.190,353.978 167.534,353.824 167.629 C 353.544 167.802,285.373 167.751,285.199 167.578 C 285.149 167.527,286.027 166.320,287.150 164.894 C 290.357 160.826,293.093 157.300,294.363 155.599 L 295.530 154.036 292.189 153.892 C 288.172 153.718,288.637 154.059,285.813 149.214 L 283.540 145.313 280.969 145.313 L 278.398 145.313 278.327 149.506 L 278.255 153.700 274.358 153.660 C 272.215 153.638,270.413 153.572,270.354 153.513 C 270.129 153.289,269.993 135.290,270.177 130.143 L 270.369 124.756 277.177 124.886 C 287.625 125.085,290.949 125.730,293.529 128.061 C 297.782 131.904,296.907 140.459,291.960 143.381 L 291.204 143.828 293.876 147.749 C 295.346 149.906,296.661 151.708,296.799 151.754 C 297.039 151.834,299.039 149.269,301.357 145.905 C 301.971 145.014,303.732 142.553,305.269 140.436 C 306.807 138.320,308.447 136.048,308.915 135.388 C 310.227 133.537,313.268 129.331,314.714 127.368 C 316.863 124.450,321.647 117.902,325.671 112.370 C 332.439 103.064,335.054 99.523,341.906 90.380 C 343.121 88.759,344.882 86.558,347.656 83.191 C 349.160 81.366,350.742 79.424,351.172 78.876 C 351.602 78.327,352.715 77.007,353.646 75.942 L 355.339 74.005 358.203 73.900 C 362.092 73.759,374.924 73.757,377.371 73.898 M361.198 116.442 C 358.630 117.769,353.713 118.104,348.307 117.321 C 335.872 115.519,329.510 119.028,326.301 129.456 L 325.851 130.917 327.710 129.583 C 332.332 126.267,336.170 125.551,343.880 126.567 C 355.119 128.047,358.305 126.433,361.984 117.393 C 362.380 116.421,362.687 115.642,362.667 115.664 C 362.647 115.685,361.986 116.035,361.198 116.442 M57.552 124.587 C 60.709 125.269,62.646 126.119,64.915 127.819 L 66.418 128.946 65.079 130.554 C 64.342 131.438,63.283 132.658,62.726 133.266 L 61.713 134.370 60.479 133.493 C 52.976 128.163,44.218 133.760,47.051 142.074 C 48.805 147.220,57.347 148.761,61.227 144.630 C 61.547 144.289,61.900 144.010,62.010 144.010 C 62.255 144.010,66.406 148.936,66.406 149.227 C 66.406 149.637,63.122 151.985,61.719 152.578 C 60.931 152.911,59.876 153.367,59.375 153.592 C 57.952 154.229,51.568 154.355,49.577 153.784 C 46.220 152.822,40.625 149.124,40.625 147.867 C 40.625 147.724,40.388 147.274,40.099 146.868 C 39.281 145.719,38.346 142.526,38.155 140.233 C 37.313 130.083,46.960 122.301,57.552 124.587 M33.513 124.846 C 33.614 124.919,34.114 145.323,34.114 149.380 L 34.115 153.578 32.977 153.706 C 32.351 153.777,30.436 153.777,28.720 153.706 L 25.601 153.578 25.421 146.291 C 25.130 134.524,25.457 124.795,26.147 124.655 C 26.605 124.562,33.363 124.738,33.513 124.846 M93.359 128.034 L 93.359 131.120 85.612 131.189 L 77.865 131.258 77.865 133.728 L 77.865 136.198 80.273 136.199 C 81.598 136.199,84.528 136.276,86.784 136.370 L 90.885 136.540 90.885 139.494 L 90.885 142.448 84.375 142.448 L 77.865 142.448 77.865 144.987 L 77.865 147.526 84.570 147.579 C 88.259 147.608,91.891 147.638,92.643 147.644 L 94.010 147.656 94.010 150.820 L 94.010 153.983 82.019 153.846 C 75.424 153.770,69.946 153.626,69.845 153.525 C 69.647 153.328,69.418 125.670,69.610 125.170 C 69.695 124.948,72.818 124.880,81.542 124.909 L 93.358 124.948 93.359 128.034 M107.209 136.068 C 107.289 142.227,107.379 147.296,107.411 147.332 C 107.442 147.369,110.445 147.427,114.083 147.462 L 120.698 147.526 120.610 150.521 C 120.562 152.168,120.466 153.574,120.396 153.646 C 120.148 153.899,99.172 153.781,99.014 153.525 C 98.929 153.387,98.852 146.851,98.844 139.001 L 98.828 124.727 102.946 124.799 L 107.065 124.870 107.209 136.068 M144.452 127.474 C 145.195 128.906,146.355 131.367,147.028 132.943 C 148.741 136.952,149.126 137.816,150.448 140.625 C 151.697 143.280,156.250 153.401,156.250 153.525 C 156.250 153.751,151.561 153.937,149.796 153.781 L 147.726 153.598 146.619 150.953 L 145.513 148.307 139.131 148.335 L 132.748 148.362 131.649 150.939 L 130.550 153.516 126.798 153.665 C 121.392 153.879,121.669 154.171,123.451 150.130 C 124.272 148.268,125.121 146.335,125.337 145.833 C 125.554 145.332,126.205 143.867,126.783 142.578 C 127.362 141.289,128.610 138.477,129.556 136.328 C 130.503 134.180,131.522 131.895,131.820 131.250 C 132.119 130.605,132.851 128.965,133.448 127.604 L 134.532 125.130 138.034 124.983 C 143.597 124.749,142.894 124.476,144.452 127.474 M168.017 126.601 C 168.922 127.625,170.716 129.648,172.005 131.096 C 173.294 132.545,175.638 135.228,177.214 137.059 L 180.078 140.388 180.147 132.694 L 180.216 125.000 184.118 125.000 C 186.265 125.000,188.027 125.088,188.034 125.195 C 188.146 126.889,188.215 152.191,188.110 152.799 L 187.963 153.646 184.672 153.642 L 181.380 153.638 179.381 151.364 C 178.282 150.112,176.418 147.917,175.240 146.484 C 174.061 145.052,172.962 143.763,172.798 143.620 C 172.634 143.477,172.041 142.773,171.480 142.057 C 170.919 141.341,170.397 140.697,170.320 140.625 C 170.242 140.553,169.553 139.763,168.788 138.868 C 166.840 136.588,166.873 136.456,167.083 145.597 L 167.267 153.646 163.191 153.646 L 159.115 153.646 159.097 151.107 C 159.087 149.710,159.020 145.228,158.947 141.146 C 158.873 137.064,158.894 131.702,158.992 129.232 L 159.171 124.740 162.772 124.740 L 166.373 124.740 168.017 126.601 M206.510 125.004 C 216.513 126.038,221.371 130.743,221.370 139.397 C 221.369 146.974,217.765 151.538,210.417 153.268 C 208.255 153.777,195.780 154.104,193.847 153.702 L 192.839 153.492 192.808 139.510 C 192.785 129.110,192.856 125.462,193.083 125.274 C 193.625 124.824,202.951 124.636,206.510 125.004 M242.736 126.236 C 243.567 128.175,243.897 128.924,244.649 130.581 C 245.035 131.430,246.115 133.832,247.049 135.919 C 247.984 138.006,249.307 140.944,249.990 142.448 C 250.673 143.952,251.560 145.944,251.961 146.875 C 252.362 147.806,253.204 149.669,253.832 151.015 C 255.250 154.053,255.374 153.954,250.431 153.741 L 246.343 153.564 245.806 152.368 C 245.511 151.710,245.048 150.586,244.776 149.870 L 244.282 148.568 237.936 148.551 L 231.590 148.535 230.540 151.025 L 229.490 153.516 225.149 153.587 C 221.063 153.654,220.822 153.631,221.050 153.196 C 221.183 152.942,222.428 150.156,223.818 147.005 C 226.998 139.792,228.356 136.765,228.780 135.938 C 229.120 135.275,232.430 127.754,233.164 125.977 L 233.567 125.000 237.887 125.000 L 242.206 125.000 242.736 126.236 M265.302 139.388 L 265.234 153.776 261.198 153.776 L 257.161 153.776 257.118 139.388 L 257.075 125.000 261.222 125.000 L 265.369 125.000 265.302 139.388 M355.337 130.477 C 353.156 131.832,348.878 132.112,343.620 131.245 C 331.177 129.193,322.581 133.912,320.202 144.103 L 320.029 144.846 321.147 143.938 C 324.867 140.919,332.703 139.571,341.088 140.507 C 346.343 141.093,350.780 139.253,353.395 135.402 C 354.194 134.226,356.424 129.861,356.170 129.969 C 356.142 129.981,355.768 130.210,355.337 130.477 M278.385 135.257 L 278.385 139.063 281.766 139.063 C 286.848 139.063,288.406 138.129,288.360 135.111 C 288.319 132.364,287.153 131.703,282.096 131.559 L 278.385 131.452 278.385 135.257 M201.060 136.229 C 201.081 138.718,201.160 142.208,201.237 143.983 L 201.377 147.211 204.585 147.059 C 210.814 146.765,213.021 144.703,213.021 139.177 C 213.021 134.017,210.725 132.031,204.518 131.821 L 201.022 131.702 201.060 136.229 M138.615 134.173 C 138.462 134.642,137.692 136.579,136.903 138.477 L 135.469 141.927 139.065 141.927 L 142.660 141.927 141.553 139.258 C 138.831 132.701,139.000 132.993,138.615 134.173 M236.180 137.781 C 235.259 139.956,234.466 141.838,234.418 141.962 C 234.371 142.086,235.923 142.188,237.869 142.188 C 239.814 142.188,241.406 142.122,241.406 142.043 C 241.406 141.881,238.340 134.697,238.043 134.165 C 237.928 133.958,237.203 135.363,236.180 137.781 M332.031 143.663 C 325.263 144.727,323.707 145.153,321.098 146.654 L 319.669 147.476 320.695 147.831 C 323.518 148.809,327.887 148.067,330.355 146.191 C 330.980 145.717,333.095 143.372,332.760 143.525 C 332.717 143.545,332.389 143.607,332.031 143.663 " stroke="none" fill="#fbfbfb" fill-rule="evenodd"></path><path id="path2" d="M364.656 73.890 C 365.341 73.943,366.396 73.943,367.000 73.888 C 367.604 73.834,367.044 73.790,365.755 73.790 C 364.466 73.791,363.972 73.836,364.656 73.890 M371.940 73.884 C 372.334 73.944,372.979 73.944,373.372 73.884 C 373.766 73.825,373.444 73.776,372.656 73.776 C 371.868 73.776,371.546 73.825,371.940 73.884 M25.612 127.083 C 25.612 128.301,25.657 128.799,25.712 128.190 C 25.766 127.581,25.766 126.585,25.712 125.977 C 25.657 125.368,25.612 125.866,25.612 127.083 M98.764 125.911 C 98.766 126.484,98.820 126.688,98.882 126.364 C 98.944 126.040,98.942 125.571,98.877 125.322 C 98.812 125.074,98.761 125.339,98.764 125.911 M182.230 125.184 C 182.554 125.246,183.022 125.244,183.271 125.179 C 183.520 125.114,183.255 125.063,182.682 125.066 C 182.109 125.069,181.906 125.122,182.230 125.184 M238.875 125.192 C 239.560 125.246,240.614 125.245,241.219 125.190 C 241.823 125.136,241.263 125.092,239.974 125.092 C 238.685 125.093,238.190 125.138,238.875 125.192 M180.292 126.823 C 180.292 127.754,180.339 128.135,180.397 127.669 C 180.454 127.204,180.454 126.442,180.397 125.977 C 180.339 125.511,180.292 125.892,180.292 126.823 M265.165 126.823 C 265.165 127.324,265.218 127.529,265.284 127.279 C 265.349 127.028,265.349 126.618,265.284 126.367 C 265.218 126.117,265.165 126.322,265.165 126.823 M77.665 132.292 C 77.665 132.793,77.718 132.998,77.784 132.747 C 77.849 132.497,77.849 132.087,77.784 131.836 C 77.718 131.585,77.665 131.790,77.665 132.292 M192.799 134.896 C 192.799 136.113,192.844 136.611,192.899 136.003 C 192.954 135.394,192.954 134.398,192.899 133.789 C 192.844 133.180,192.799 133.678,192.799 134.896 M257.131 136.589 C 257.131 138.307,257.173 138.977,257.224 138.076 C 257.275 137.175,257.275 135.769,257.223 134.951 C 257.172 134.133,257.130 134.870,257.131 136.589 M107.124 136.589 C 107.123 137.878,107.167 138.438,107.222 137.833 C 107.276 137.229,107.277 136.174,107.223 135.490 C 107.169 134.805,107.124 135.299,107.124 136.589 M278.199 136.849 C 278.201 137.565,278.252 137.827,278.312 137.431 C 278.372 137.035,278.370 136.450,278.308 136.129 C 278.247 135.809,278.198 136.133,278.199 136.849 M80.794 136.389 C 81.475 136.443,82.588 136.443,83.268 136.389 C 83.949 136.336,83.392 136.292,82.031 136.292 C 80.671 136.292,80.114 136.336,80.794 136.389 M270.155 140.755 C 270.155 142.760,270.196 143.546,270.246 142.502 C 270.295 141.457,270.295 139.816,270.245 138.856 C 270.195 137.895,270.154 138.750,270.155 140.755 M338.219 140.549 C 338.543 140.611,339.012 140.609,339.261 140.544 C 339.510 140.478,339.245 140.427,338.672 140.430 C 338.099 140.433,337.895 140.486,338.219 140.549 M69.624 143.880 C 69.623 145.169,69.667 145.729,69.722 145.125 C 69.776 144.521,69.777 143.466,69.723 142.781 C 69.669 142.097,69.624 142.591,69.624 143.880 M137.695 142.118 C 138.304 142.173,139.300 142.173,139.909 142.118 C 140.518 142.063,140.020 142.018,138.802 142.018 C 137.585 142.018,137.087 142.063,137.695 142.118 M83.529 142.371 C 83.851 142.433,84.378 142.433,84.701 142.371 C 85.023 142.309,84.759 142.258,84.115 142.258 C 83.470 142.258,83.206 142.309,83.529 142.371 M192.796 144.271 C 192.796 145.345,192.842 145.785,192.898 145.247 C 192.954 144.710,192.954 143.831,192.898 143.294 C 192.842 142.757,192.796 143.197,192.796 144.271 M107.122 145.313 C 107.122 146.530,107.167 147.028,107.222 146.419 C 107.277 145.811,107.277 144.814,107.222 144.206 C 107.167 143.597,107.122 144.095,107.122 145.313 M201.107 146.224 C 201.110 146.797,201.164 147.001,201.226 146.677 C 201.288 146.353,201.286 145.884,201.221 145.635 C 201.155 145.386,201.104 145.651,201.107 146.224 M278.208 148.177 C 278.208 149.108,278.256 149.489,278.313 149.023 C 278.371 148.558,278.371 147.796,278.313 147.331 C 278.256 146.865,278.208 147.246,278.208 148.177 M25.608 149.479 C 25.608 150.553,25.654 150.993,25.711 150.456 C 25.767 149.919,25.767 149.040,25.711 148.503 C 25.654 147.965,25.608 148.405,25.608 149.479 M139.779 148.368 C 140.387 148.423,141.383 148.423,141.992 148.368 C 142.601 148.313,142.103 148.268,140.885 148.268 C 139.668 148.268,139.170 148.313,139.779 148.368 M99.033 152.474 C 99.035 153.190,99.085 153.452,99.145 153.056 C 99.205 152.660,99.203 152.075,99.142 151.754 C 99.080 151.434,99.031 151.758,99.033 152.474 M128.906 153.385 L 127.214 153.556 128.826 153.601 C 129.713 153.626,130.510 153.529,130.599 153.385 C 130.687 153.242,130.724 153.145,130.679 153.170 C 130.635 153.195,129.837 153.292,128.906 153.385 M160.091 153.569 C 160.413 153.631,160.941 153.631,161.263 153.569 C 161.585 153.507,161.322 153.456,160.677 153.456 C 160.033 153.456,159.769 153.507,160.091 153.569 M82.487 153.840 C 84.242 153.885,87.113 153.885,88.867 153.840 C 90.622 153.795,89.186 153.758,85.677 153.758 C 82.168 153.758,80.732 153.795,82.487 153.840 M111.797 153.840 C 113.201 153.887,115.428 153.887,116.745 153.840 C 118.063 153.793,116.914 153.754,114.193 153.754 C 111.471 153.755,110.393 153.793,111.797 153.840 M150.846 153.836 C 151.383 153.892,152.262 153.892,152.799 153.836 C 153.337 153.779,152.897 153.733,151.823 153.733 C 150.749 153.733,150.309 153.779,150.846 153.836 M197.982 153.832 C 198.376 153.892,199.020 153.892,199.414 153.832 C 199.808 153.773,199.486 153.724,198.698 153.724 C 197.910 153.724,197.588 153.773,197.982 153.832 M290.039 167.632 C 290.361 167.694,290.889 167.694,291.211 167.632 C 291.533 167.570,291.270 167.519,290.625 167.519 C 289.980 167.519,289.717 167.570,290.039 167.632 M351.628 167.888 C 351.878 167.953,352.288 167.953,352.539 167.888 C 352.790 167.822,352.585 167.769,352.083 167.769 C 351.582 167.769,351.377 167.822,351.628 167.888 " stroke="none" fill="#9ca0ac" fill-rule="evenodd"></path><path id="path3" d="M357.487 74.149 C 358.096 74.204,359.092 74.204,359.701 74.149 C 360.309 74.094,359.811 74.049,358.594 74.049 C 357.376 74.049,356.878 74.094,357.487 74.149 M357.796 74.829 C 357.447 75.003,357.161 75.318,357.161 75.529 C 357.161 75.969,356.553 76.432,356.303 76.182 C 356.211 76.089,356.257 75.932,356.407 75.832 C 357.022 75.422,357.033 74.740,356.424 74.740 C 355.527 74.740,350.772 79.791,350.983 80.521 C 351.022 80.657,350.934 80.694,350.788 80.603 C 350.641 80.512,350.521 80.555,350.521 80.698 C 350.521 80.842,350.638 81.031,350.781 81.120 C 351.126 81.333,351.115 81.771,350.766 81.771 C 350.614 81.771,350.558 81.662,350.640 81.528 C 350.864 81.167,349.323 81.982,348.963 82.416 C 348.793 82.621,348.740 82.930,348.846 83.102 C 348.957 83.281,348.929 83.346,348.780 83.254 C 348.185 82.886,348.458 84.891,349.097 85.580 C 349.783 86.321,349.919 86.239,349.452 85.366 C 349.232 84.955,349.247 84.773,349.517 84.585 C 349.762 84.416,349.691 84.391,349.284 84.506 C 348.601 84.698,348.535 84.500,349.096 83.940 C 349.399 83.636,349.579 83.613,349.852 83.839 C 350.122 84.064,350.236 84.057,350.318 83.813 C 350.391 83.593,350.477 83.625,350.587 83.911 C 350.678 84.147,350.543 84.570,350.280 84.873 C 349.982 85.217,349.858 85.661,349.941 86.090 C 350.027 86.544,350.136 86.659,350.271 86.441 C 350.382 86.262,350.405 85.939,350.322 85.723 C 350.224 85.468,350.278 85.397,350.477 85.520 C 350.670 85.639,350.781 85.521,350.781 85.198 C 350.781 84.788,350.961 84.688,351.693 84.688 C 352.194 84.688,352.604 84.791,352.604 84.917 C 352.604 85.044,353.023 84.912,353.535 84.625 C 354.047 84.337,354.399 84.210,354.318 84.341 C 354.236 84.473,354.337 84.645,354.541 84.724 C 354.791 84.819,354.901 84.700,354.875 84.360 C 354.854 84.082,354.716 83.852,354.567 83.850 C 354.418 83.848,354.469 83.737,354.680 83.604 C 354.891 83.471,354.992 83.291,354.906 83.205 C 354.820 83.119,354.568 83.229,354.346 83.451 C 354.125 83.673,353.789 83.853,353.599 83.852 C 353.410 83.852,353.599 83.624,354.020 83.346 C 354.815 82.822,355.339 82.879,355.114 83.464 C 355.042 83.650,355.206 83.861,355.478 83.932 C 355.765 84.007,355.948 83.936,355.916 83.762 C 355.885 83.598,356.069 83.481,356.324 83.501 C 356.921 83.550,356.444 82.909,355.710 82.676 C 355.239 82.527,355.237 82.490,355.667 81.834 C 355.914 81.457,356.078 80.924,356.032 80.650 C 355.980 80.344,356.056 80.219,356.229 80.325 C 356.384 80.421,356.510 80.385,356.510 80.245 C 356.510 80.106,356.364 79.932,356.185 79.859 C 355.966 79.770,356.073 79.551,356.510 79.193 C 357.150 78.670,357.151 78.663,356.576 78.768 C 355.849 78.902,355.812 78.501,356.510 78.065 C 357.192 77.639,357.170 77.230,356.445 76.880 C 356.086 76.707,356.011 76.592,356.250 76.584 C 356.714 76.568,357.025 76.777,357.552 77.459 C 357.784 77.760,357.811 77.885,357.617 77.769 C 357.436 77.660,357.292 77.700,357.292 77.857 C 357.292 78.014,357.477 78.213,357.704 78.300 C 358.036 78.427,358.049 78.501,357.769 78.678 C 357.560 78.811,357.539 78.900,357.716 78.902 C 357.877 78.904,358.155 78.730,358.333 78.516 C 358.593 78.203,358.591 78.125,358.322 78.125 C 358.137 78.125,358.061 78.050,358.153 77.958 C 358.245 77.866,358.489 77.930,358.694 78.101 C 359.198 78.518,359.484 78.034,359.127 77.367 C 358.846 76.841,359.438 75.889,359.877 76.160 C 360.169 76.341,361.243 75.267,361.127 74.912 C 360.998 74.519,359.375 74.352,359.375 74.732 C 359.375 74.928,359.226 74.938,358.903 74.766 C 358.583 74.594,358.226 74.615,357.796 74.829 M359.520 76.799 C 359.078 77.515,359.771 78.027,360.370 77.427 C 360.779 77.017,360.770 76.999,360.221 77.142 C 359.610 77.302,359.394 76.964,359.961 76.735 C 360.196 76.640,360.200 76.598,359.976 76.583 C 359.806 76.572,359.600 76.669,359.520 76.799 M355.099 77.865 C 355.303 77.865,355.469 77.994,355.469 78.153 C 355.469 78.326,355.286 78.366,355.013 78.252 C 354.762 78.148,354.411 78.057,354.232 78.051 C 354.053 78.044,353.906 77.928,353.906 77.793 C 353.906 77.659,354.092 77.620,354.318 77.707 C 354.545 77.793,354.896 77.865,355.099 77.865 M355.710 79.320 C 355.542 79.522,355.273 79.678,355.111 79.667 C 354.927 79.654,354.939 79.598,355.143 79.515 C 355.322 79.443,355.469 79.211,355.469 78.999 C 355.469 78.788,355.592 78.691,355.742 78.784 C 355.928 78.899,355.918 79.069,355.710 79.320 M354.245 80.901 C 354.171 81.093,353.983 81.250,353.826 81.250 C 353.625 81.250,353.627 81.165,353.834 80.958 C 353.994 80.797,354.065 80.475,353.992 80.242 C 353.882 79.897,353.906 79.886,354.118 80.185 C 354.261 80.387,354.319 80.709,354.245 80.901 M355.651 80.313 C 355.515 80.722,355.023 80.781,354.879 80.405 C 354.798 80.193,354.937 80.060,355.241 80.060 C 355.513 80.060,355.697 80.174,355.651 80.313 M356.775 80.893 C 356.851 82.016,356.791 82.201,356.487 81.771 C 356.272 81.468,356.232 81.462,356.309 81.747 C 356.363 81.949,356.694 82.154,357.045 82.203 C 357.396 82.253,357.565 82.205,357.422 82.097 C 357.056 81.822,356.957 81.197,357.249 81.013 C 357.388 80.926,357.327 80.704,357.110 80.502 C 356.776 80.193,356.732 80.245,356.775 80.893 M354.274 81.993 C 354.349 82.116,354.075 82.204,353.663 82.189 C 353.252 82.174,352.970 82.074,353.036 81.966 C 353.200 81.699,354.104 81.719,354.274 81.993 M351.121 83.348 C 351.236 83.788,351.195 83.829,350.891 83.577 C 350.477 83.233,350.400 82.813,350.751 82.813 C 350.877 82.813,351.044 83.054,351.121 83.348 M352.734 83.854 C 352.182 84.465,351.823 84.525,351.823 84.006 C 351.823 83.628,352.193 83.390,352.840 83.354 C 353.115 83.338,353.089 83.463,352.734 83.854 M53.060 124.407 C 53.525 124.465,54.287 124.465,54.753 124.407 C 55.218 124.349,54.837 124.302,53.906 124.302 C 52.975 124.302,52.594 124.349,53.060 124.407 M105.143 124.923 C 105.465 124.985,105.993 124.985,106.315 124.923 C 106.637 124.861,106.374 124.811,105.729 124.811 C 105.085 124.811,104.821 124.861,105.143 124.923 M185.617 125.189 C 186.085 125.247,186.788 125.245,187.179 125.186 C 187.570 125.127,187.188 125.079,186.328 125.081 C 185.469 125.082,185.149 125.131,185.617 125.189 M205.664 125.184 C 205.986 125.246,206.514 125.246,206.836 125.184 C 207.158 125.122,206.895 125.071,206.250 125.071 C 205.605 125.071,205.342 125.122,205.664 125.184 M257.112 126.953 C 257.113 127.813,257.162 128.133,257.220 127.665 C 257.278 127.197,257.277 126.493,257.217 126.102 C 257.158 125.711,257.110 126.094,257.112 126.953 M106.863 130.078 C 106.862 131.367,106.907 131.927,106.961 131.323 C 107.016 130.719,107.016 129.664,106.963 128.979 C 106.909 128.295,106.864 128.789,106.863 130.078 M69.621 130.859 C 69.621 132.005,69.667 132.442,69.722 131.829 C 69.777 131.217,69.777 130.279,69.721 129.746 C 69.665 129.212,69.620 129.714,69.621 130.859 M339.909 130.648 C 340.160 130.714,340.570 130.714,340.820 130.648 C 341.071 130.583,340.866 130.529,340.365 130.529 C 339.863 130.529,339.658 130.583,339.909 130.648 M77.774 131.185 C 77.707 131.292,78.491 131.348,79.516 131.309 C 82.689 131.188,83.056 131.075,80.419 131.031 C 79.031 131.008,77.841 131.077,77.774 131.185 M91.865 131.174 C 92.189 131.236,92.658 131.234,92.907 131.169 C 93.156 131.103,92.891 131.052,92.318 131.055 C 91.745 131.058,91.541 131.111,91.865 131.174 M278.232 131.607 C 278.157 131.803,278.139 132.594,278.192 133.364 L 278.289 134.766 278.337 133.147 L 278.385 131.529 281.055 131.444 L 283.724 131.360 281.047 131.305 C 278.982 131.263,278.338 131.332,278.232 131.607 M348.767 131.697 C 349.162 131.757,349.748 131.756,350.069 131.694 C 350.389 131.632,350.065 131.583,349.349 131.585 C 348.633 131.587,348.371 131.637,348.767 131.697 M33.659 133.203 C 33.662 133.776,33.716 133.980,33.778 133.656 C 33.840 133.332,33.838 132.863,33.773 132.614 C 33.707 132.365,33.657 132.630,33.659 133.203 M99.019 134.375 C 99.019 134.876,99.072 135.081,99.138 134.831 C 99.203 134.580,99.203 134.170,99.138 133.919 C 99.072 133.669,99.019 133.874,99.019 134.375 M324.593 135.482 L 323.828 136.328 324.674 135.563 C 325.463 134.850,325.641 134.635,325.439 134.635 C 325.395 134.635,325.014 135.016,324.593 135.482 M351.937 137.305 L 351.172 138.151 352.018 137.386 C 352.807 136.673,352.984 136.458,352.783 136.458 C 352.738 136.458,352.357 136.839,351.937 137.305 M221.154 137.500 C 221.154 138.001,221.208 138.206,221.273 137.956 C 221.339 137.705,221.339 137.295,221.273 137.044 C 221.208 136.794,221.154 136.999,221.154 137.500 M192.801 140.234 C 192.800 141.523,192.844 142.084,192.899 141.479 C 192.953 140.875,192.954 139.820,192.900 139.135 C 192.846 138.451,192.802 138.945,192.801 140.234 M265.182 140.885 C 265.182 141.673,265.231 141.995,265.291 141.602 C 265.350 141.208,265.350 140.563,265.291 140.169 C 265.231 139.775,265.182 140.098,265.182 140.885 M90.691 141.276 C 90.694 141.849,90.747 142.053,90.809 141.729 C 90.871 141.405,90.869 140.936,90.804 140.687 C 90.739 140.438,90.688 140.703,90.691 141.276 M331.445 140.548 C 331.768 140.610,332.295 140.610,332.617 140.548 C 332.939 140.486,332.676 140.436,332.031 140.436 C 331.387 140.436,331.123 140.486,331.445 140.548 M79.102 142.379 C 79.854 142.432,81.084 142.432,81.836 142.379 C 82.588 142.327,81.973 142.284,80.469 142.284 C 78.965 142.284,78.350 142.327,79.102 142.379 M240.169 142.367 C 240.420 142.433,240.830 142.433,241.081 142.367 C 241.331 142.302,241.126 142.248,240.625 142.248 C 240.124 142.248,239.919 142.302,240.169 142.367 M201.113 144.271 C 201.113 144.915,201.163 145.179,201.225 144.857 C 201.288 144.535,201.288 144.007,201.225 143.685 C 201.163 143.363,201.113 143.626,201.113 144.271 M188.124 148.438 C 188.124 150.514,188.165 151.364,188.214 150.326 C 188.264 149.287,188.264 147.588,188.214 146.549 C 188.165 145.511,188.124 146.361,188.124 148.438 M257.106 146.224 C 257.108 146.940,257.158 147.202,257.218 146.806 C 257.278 146.410,257.276 145.825,257.215 145.504 C 257.153 145.184,257.104 145.508,257.106 146.224 M159.180 146.745 C 159.183 147.318,159.236 147.521,159.299 147.197 C 159.361 146.874,159.359 146.405,159.294 146.156 C 159.228 145.907,159.177 146.172,159.180 146.745 M77.665 146.875 C 77.665 147.376,77.718 147.581,77.784 147.331 C 77.849 147.080,77.849 146.670,77.784 146.419 C 77.718 146.169,77.665 146.374,77.665 146.875 M193.060 148.958 C 193.060 150.176,193.105 150.674,193.159 150.065 C 193.214 149.456,193.214 148.460,193.159 147.852 C 193.105 147.243,193.060 147.741,193.060 148.958 M99.048 149.089 C 99.049 150.234,99.094 150.671,99.149 150.058 C 99.204 149.446,99.204 148.508,99.148 147.975 C 99.092 147.442,99.047 147.943,99.048 149.089 M204.492 147.315 C 204.743 147.380,205.153 147.380,205.404 147.315 C 205.654 147.249,205.449 147.196,204.948 147.196 C 204.447 147.196,204.242 147.249,204.492 147.315 M108.919 147.589 C 109.886 147.639,111.468 147.639,112.435 147.589 C 113.402 147.539,112.611 147.498,110.677 147.498 C 108.743 147.498,107.952 147.539,108.919 147.589 M278.208 152.083 C 278.208 153.014,278.256 153.395,278.313 152.930 C 278.371 152.464,278.371 151.702,278.313 151.237 C 278.256 150.771,278.208 151.152,278.208 152.083 M25.595 152.474 C 25.597 153.190,25.648 153.452,25.708 153.056 C 25.768 152.660,25.766 152.075,25.704 151.754 C 25.642 151.434,25.593 151.758,25.595 152.474 M72.338 153.576 C 72.950 153.631,73.888 153.631,74.421 153.575 C 74.954 153.519,74.453 153.474,73.307 153.475 C 72.161 153.476,71.725 153.521,72.338 153.576 M106.445 153.569 C 106.768 153.631,107.295 153.631,107.617 153.569 C 107.939 153.507,107.676 153.456,107.031 153.456 C 106.387 153.456,106.123 153.507,106.445 153.569 M227.412 153.572 C 227.808 153.632,228.394 153.631,228.715 153.569 C 229.035 153.507,228.711 153.458,227.995 153.460 C 227.279 153.462,227.017 153.512,227.412 153.572 M247.338 153.576 C 247.950 153.631,248.888 153.631,249.421 153.575 C 249.954 153.519,249.453 153.474,248.307 153.475 C 247.161 153.476,246.725 153.521,247.338 153.576 M202.539 153.837 C 203.148 153.891,204.144 153.891,204.753 153.837 C 205.361 153.782,204.863 153.737,203.646 153.737 C 202.428 153.737,201.930 153.782,202.539 153.837 M285.615 167.632 C 285.939 167.694,286.408 167.692,286.657 167.627 C 286.906 167.562,286.641 167.511,286.068 167.514 C 285.495 167.516,285.291 167.570,285.615 167.632 M315.560 167.632 C 315.882 167.694,316.410 167.694,316.732 167.632 C 317.054 167.570,316.790 167.519,316.146 167.519 C 315.501 167.519,315.238 167.570,315.560 167.632 M320.502 167.636 C 320.964 167.693,321.785 167.694,322.325 167.638 C 322.865 167.582,322.487 167.535,321.484 167.533 C 320.482 167.532,320.040 167.578,320.502 167.636 M327.803 167.632 C 328.126 167.694,328.595 167.692,328.844 167.627 C 329.093 167.562,328.828 167.511,328.255 167.514 C 327.682 167.516,327.479 167.570,327.803 167.632 M332.492 167.637 C 332.960 167.695,333.663 167.693,334.054 167.634 C 334.445 167.575,334.063 167.527,333.203 167.529 C 332.344 167.530,332.024 167.579,332.492 167.637 " stroke="none" fill="#7c7c8e" fill-rule="evenodd"></path><path id="path4" d="M361.523 73.884 C 361.917 73.944,362.562 73.944,362.956 73.884 C 363.350 73.825,363.027 73.776,362.240 73.776 C 361.452 73.776,361.130 73.825,361.523 73.884 M368.679 73.886 C 369.141 73.943,369.962 73.944,370.502 73.888 C 371.042 73.832,370.664 73.785,369.661 73.783 C 368.659 73.782,368.217 73.828,368.679 73.886 M341.215 116.854 C 341.610 116.913,342.196 116.912,342.517 116.850 C 342.837 116.788,342.513 116.739,341.797 116.741 C 341.081 116.743,340.819 116.794,341.215 116.854 M27.148 124.666 C 27.542 124.725,28.187 124.725,28.581 124.666 C 28.975 124.606,28.652 124.557,27.865 124.557 C 27.077 124.557,26.755 124.606,27.148 124.666 M69.695 124.946 C 69.625 125.059,69.970 125.105,70.461 125.047 C 70.952 124.990,71.354 124.897,71.354 124.841 C 71.354 124.645,69.821 124.742,69.695 124.946 M93.209 125.716 C 93.333 126.615,93.351 126.633,93.437 125.945 C 93.488 125.534,93.427 125.094,93.302 124.969 C 93.171 124.838,93.131 125.157,93.209 125.716 M141.732 124.919 C 141.982 124.985,142.393 124.985,142.643 124.919 C 142.894 124.854,142.689 124.800,142.188 124.800 C 141.686 124.800,141.481 124.854,141.732 124.919 M160.872 124.933 C 161.911 124.982,163.610 124.982,164.648 124.933 C 165.687 124.884,164.837 124.843,162.760 124.843 C 160.684 124.843,159.834 124.884,160.872 124.933 M199.805 124.933 C 200.771 124.983,202.354 124.983,203.320 124.933 C 204.287 124.883,203.496 124.842,201.563 124.842 C 199.629 124.842,198.838 124.883,199.805 124.933 M271.289 124.930 C 271.898 124.985,272.894 124.985,273.503 124.930 C 274.111 124.875,273.613 124.831,272.396 124.831 C 271.178 124.831,270.680 124.875,271.289 124.930 M284.180 125.180 C 284.430 125.245,284.840 125.245,285.091 125.180 C 285.342 125.114,285.137 125.060,284.635 125.060 C 284.134 125.060,283.929 125.114,284.180 125.180 M188.092 126.563 C 188.092 127.207,188.143 127.471,188.205 127.148 C 188.267 126.826,188.267 126.299,188.205 125.977 C 188.143 125.654,188.092 125.918,188.092 126.563 M192.783 126.693 C 192.785 127.409,192.835 127.671,192.895 127.275 C 192.955 126.879,192.953 126.293,192.892 125.973 C 192.830 125.653,192.781 125.977,192.783 126.693 M337.702 126.233 C 338.315 126.288,339.252 126.287,339.786 126.231 C 340.319 126.175,339.818 126.130,338.672 126.131 C 337.526 126.132,337.090 126.178,337.702 126.233 M350.326 127.263 C 350.576 127.328,350.986 127.328,351.237 127.263 C 351.488 127.197,351.283 127.144,350.781 127.144 C 350.280 127.144,350.075 127.197,350.326 127.263 M265.214 132.813 C 265.214 135.749,265.252 136.950,265.298 135.482 C 265.345 134.014,265.345 131.611,265.298 130.143 C 265.252 128.675,265.214 129.876,265.214 132.813 M93.295 130.078 C 93.298 130.651,93.351 130.855,93.413 130.531 C 93.476 130.207,93.473 129.738,93.408 129.489 C 93.343 129.240,93.292 129.505,93.295 130.078 M158.958 132.943 C 158.959 135.091,158.999 135.935,159.048 134.819 C 159.097 133.702,159.097 131.944,159.047 130.913 C 158.998 129.881,158.958 130.794,158.958 132.943 M33.659 131.120 C 33.662 131.693,33.716 131.896,33.778 131.572 C 33.840 131.249,33.838 130.780,33.773 130.531 C 33.707 130.282,33.657 130.547,33.659 131.120 M336.908 130.657 C 337.371 130.714,338.191 130.715,338.731 130.659 C 339.271 130.602,338.893 130.555,337.891 130.554 C 336.888 130.553,336.446 130.599,336.908 130.657 M107.102 133.333 C 107.102 133.978,107.153 134.242,107.215 133.919 C 107.277 133.597,107.277 133.070,107.215 132.747 C 107.153 132.425,107.102 132.689,107.102 133.333 M25.371 139.063 C 25.371 142.142,25.409 143.402,25.455 141.862 C 25.501 140.322,25.501 137.803,25.455 136.263 C 25.409 134.723,25.371 135.983,25.371 139.063 M270.123 134.896 C 270.123 135.540,270.174 135.804,270.236 135.482 C 270.298 135.160,270.298 134.632,270.236 134.310 C 270.174 133.988,270.123 134.251,270.123 134.896 M296.172 135.156 C 296.172 135.944,296.221 136.266,296.280 135.872 C 296.340 135.479,296.340 134.834,296.280 134.440 C 296.221 134.046,296.172 134.368,296.172 135.156 M188.099 135.417 C 188.099 136.204,188.148 136.527,188.207 136.133 C 188.267 135.739,188.267 135.094,188.207 134.701 C 188.148 134.307,188.099 134.629,188.099 135.417 M78.323 136.382 C 78.647 136.444,79.116 136.442,79.365 136.377 C 79.614 136.312,79.349 136.261,78.776 136.264 C 78.203 136.266,77.999 136.320,78.323 136.382 M90.710 138.672 C 90.712 139.674,90.759 140.053,90.815 139.512 C 90.871 138.972,90.870 138.152,90.813 137.690 C 90.755 137.227,90.709 137.669,90.710 138.672 M38.102 138.932 C 38.103 139.792,38.152 140.112,38.210 139.644 C 38.268 139.176,38.266 138.473,38.207 138.081 C 38.147 137.690,38.100 138.073,38.102 138.932 M98.806 142.318 C 98.806 144.896,98.845 145.915,98.892 144.583 C 98.939 143.251,98.939 141.142,98.892 139.896 C 98.844 138.650,98.805 139.740,98.806 142.318 M158.958 141.406 C 158.958 143.483,158.998 144.333,159.048 143.294 C 159.097 142.256,159.097 140.557,159.048 139.518 C 158.998 138.480,158.958 139.329,158.958 141.406 M213.102 139.193 C 213.103 140.052,213.152 140.372,213.210 139.904 C 213.268 139.436,213.266 138.733,213.207 138.342 C 213.147 137.950,213.100 138.333,213.102 139.193 M46.425 139.063 C 46.425 139.707,46.476 139.971,46.538 139.648 C 46.600 139.326,46.600 138.799,46.538 138.477 C 46.476 138.154,46.425 138.418,46.425 139.063 M69.612 140.234 C 69.613 141.094,69.662 141.414,69.720 140.946 C 69.778 140.478,69.777 139.775,69.717 139.383 C 69.658 138.992,69.610 139.375,69.612 140.234 M33.964 146.484 C 33.965 149.492,34.003 150.687,34.049 149.139 C 34.095 147.592,34.095 145.131,34.048 143.671 C 34.002 142.210,33.964 143.477,33.964 146.484 M167.036 148.828 C 167.036 151.549,167.074 152.627,167.121 151.223 C 167.168 149.820,167.168 147.593,167.121 146.276 C 167.074 144.958,167.035 146.107,167.036 148.828 M270.118 145.182 C 270.121 145.755,270.174 145.959,270.236 145.635 C 270.299 145.311,270.296 144.842,270.231 144.593 C 270.166 144.344,270.115 144.609,270.118 145.182 M69.628 148.698 C 69.628 150.202,69.671 150.817,69.723 150.065 C 69.776 149.313,69.776 148.083,69.723 147.331 C 69.671 146.579,69.628 147.194,69.628 148.698 M270.135 148.177 C 270.135 149.108,270.183 149.489,270.240 149.023 C 270.298 148.558,270.298 147.796,270.240 147.331 C 270.183 146.865,270.135 147.246,270.135 148.177 M79.629 147.587 C 80.242 147.642,81.179 147.641,81.713 147.585 C 82.246 147.529,81.745 147.484,80.599 147.485 C 79.453 147.486,79.017 147.532,79.629 147.587 M117.756 147.587 C 119.643 147.645,120.573 147.775,120.646 147.990 C 120.705 148.165,120.741 148.132,120.725 147.917 C 120.702 147.596,120.187 147.524,117.835 147.513 L 114.974 147.500 117.756 147.587 M133.659 148.364 C 134.053 148.423,134.697 148.423,135.091 148.364 C 135.485 148.304,135.163 148.255,134.375 148.255 C 133.587 148.255,133.265 148.304,133.659 148.364 M322.331 148.361 C 322.653 148.423,323.180 148.423,323.503 148.361 C 323.825 148.299,323.561 148.248,322.917 148.248 C 322.272 148.248,322.008 148.299,322.331 148.361 M217.448 149.609 C 216.815 150.254,216.356 150.781,216.428 150.781 C 216.500 150.781,217.076 150.254,217.708 149.609 C 218.341 148.965,218.800 148.438,218.728 148.438 C 218.657 148.438,218.080 148.965,217.448 149.609 M232.617 148.617 C 232.868 148.683,233.278 148.683,233.529 148.617 C 233.779 148.552,233.574 148.498,233.073 148.498 C 232.572 148.498,232.367 148.552,232.617 148.617 M239.006 148.630 C 239.763 148.683,240.935 148.682,241.610 148.629 C 242.286 148.575,241.667 148.532,240.234 148.533 C 238.802 148.533,238.249 148.577,239.006 148.630 M257.137 152.344 L 257.161 153.776 261.133 153.787 L 265.105 153.797 261.212 153.715 L 257.318 153.632 257.215 152.272 L 257.112 150.911 257.137 152.344 M162.565 153.565 C 162.816 153.630,163.226 153.630,163.477 153.565 C 163.727 153.499,163.522 153.446,163.021 153.446 C 162.520 153.446,162.314 153.499,162.565 153.565 M30.928 153.830 C 31.251 153.892,31.720 153.890,31.969 153.825 C 32.218 153.760,31.953 153.709,31.380 153.712 C 30.807 153.714,30.604 153.768,30.928 153.830 M76.504 153.837 C 77.117 153.892,78.054 153.891,78.588 153.835 C 79.121 153.779,78.620 153.734,77.474 153.735 C 76.328 153.736,75.892 153.782,76.504 153.837 M194.730 153.830 C 195.054 153.892,195.522 153.890,195.771 153.825 C 196.020 153.760,195.755 153.709,195.182 153.712 C 194.609 153.714,194.406 153.768,194.730 153.830 M252.279 153.834 C 252.744 153.892,253.506 153.892,253.971 153.834 C 254.437 153.776,254.056 153.729,253.125 153.729 C 252.194 153.729,251.813 153.776,252.279 153.834 M292.668 153.840 C 295.416 153.918,295.598 153.955,295.272 154.371 C 294.957 154.773,294.967 154.782,295.375 154.463 C 296.198 153.818,295.576 153.645,292.628 153.701 L 289.714 153.757 292.668 153.840 " stroke="none" fill="#caccd2" fill-rule="evenodd"></path></g></svg>