<svg version="1.1" id="Layer_1" xmlns="http://www.w3.org/2000/svg" xmlns:xlink="http://www.w3.org/1999/xlink" x="0px" y="0px"
	 width="100%" viewBox="0 0 1920 1080" enable-background="new 0 0 1920 1080" xml:space="preserve">
<path fill="#FFFFFF" opacity="1.000000" stroke="none" 
	d="
M1752.000000,1081.000000 
	C1168.000122,1081.000000 584.500183,1081.000000 1.000235,1081.000000 
	C1.000157,721.000183 1.000157,361.000336 1.000078,1.000380 
	C640.999695,1.000253 1280.999390,1.000253 1920.999268,1.000127 
	C1920.999512,360.999634 1920.999512,720.999268 1920.999756,1080.999512 
	C1864.833374,1081.000000 1808.666626,1081.000000 1752.000000,1081.000000 
M1146.798706,570.500000 
	C1146.798828,542.683533 1146.672363,514.866028 1146.919800,487.051727 
	C1146.962646,482.244659 1145.432251,481.152771 1140.983765,481.319275 
	C1132.500732,481.636719 1123.997437,481.411438 1115.502563,481.411438 
	C1112.408447,481.411438 1109.314453,481.411438 1106.505615,481.411438 
	C1106.505615,509.580017 1106.505615,537.033081 1106.505615,564.459045 
	C1106.307495,564.388611 1105.906982,564.375244 1105.755737,564.174316 
	C1086.125854,538.084229 1066.476929,512.008118 1046.951294,485.840027 
	C1044.670898,482.783936 1042.282837,481.187866 1038.292969,481.324951 
	C1029.974487,481.610748 1021.639343,481.411438 1013.311096,481.411438 
	C1008.547668,481.411438 1003.784180,481.411438 998.986572,481.411438 
	C998.986572,525.665100 998.986572,569.195923 998.986572,612.661499 
	C1012.540588,612.661499 1025.750854,612.661499 1039.080322,612.661499 
	C1039.080322,598.616089 1039.080200,584.959778 1039.080200,571.303467 
	C1039.080200,557.663940 1039.080322,544.024414 1039.080322,530.340881 
	C1048.320679,542.348267 1057.253662,553.989929 1066.223145,565.603516 
	C1077.717285,580.486206 1089.159058,595.411255 1100.866821,610.124329 
	C1102.159912,611.749329 1105.024048,612.856506 1107.198242,612.921875 
	C1117.016724,613.216980 1126.849121,613.050842 1136.676514,613.050903 
	C1139.942627,613.050903 1143.208740,613.050903 1146.798706,613.050903 
	C1146.798706,598.758728 1146.798706,585.129333 1146.798706,570.500000 
M1551.984131,571.468384 
	C1548.691040,567.147522 1545.397949,562.826660 1542.647827,559.218262 
	C1551.102783,555.420227 1559.776245,552.311890 1567.662720,547.821289 
	C1585.411133,537.715271 1589.341309,519.288879 1577.383179,503.292999 
	C1571.350098,495.223206 1562.366821,491.252838 1553.094360,487.980011 
	C1536.271484,482.042114 1518.698975,481.857971 1501.223022,481.500854 
	C1481.902100,481.106018 1462.566895,481.410645 1443.237915,481.410645 
	C1441.611206,481.410645 1439.984497,481.410614 1438.160278,481.410614 
	C1438.160278,525.497620 1438.160278,569.062256 1438.160278,612.791992 
	C1452.975220,612.791992 1467.542358,612.791992 1482.339600,612.791992 
	C1482.339600,596.121704 1482.339600,579.708069 1482.339600,563.004028 
	C1485.453857,563.004028 1488.447876,563.150635 1491.421509,562.966675 
	C1495.098267,562.739136 1497.915283,563.118713 1499.889526,567.116089 
	C1501.645142,570.670349 1504.747681,573.560425 1507.262451,576.738342 
	C1516.117310,587.928101 1524.916626,599.163025 1533.906616,610.243103 
	C1535.012085,611.605408 1537.131958,612.905151 1538.801147,612.930115 
	C1552.961426,613.141724 1567.126221,613.058350 1581.289673,613.032471 
	C1582.150391,613.030884 1583.010742,612.766235 1584.258057,612.560059 
	C1573.432739,598.737244 1562.957764,585.361633 1551.984131,571.468384 
M610.817505,613.049866 
	C625.370544,613.049866 639.923584,613.049866 655.482971,613.049866 
	C640.860535,594.362000 626.872437,576.484741 612.959473,558.703613 
	C618.504456,556.703003 623.744080,555.201294 628.632812,552.940613 
	C633.644226,550.623169 638.571228,547.931274 643.081238,544.758118 
	C656.175415,535.545044 658.636169,517.210327 649.098083,504.513031 
	C641.967224,495.020294 631.928528,490.501801 621.143677,487.070770 
	C605.178650,481.991852 588.600891,481.813141 572.117615,481.499512 
	C552.804077,481.132080 533.478210,481.414612 514.157654,481.415222 
	C512.530334,481.415253 510.903046,481.415222 509.040771,481.415222 
	C509.040771,525.490173 509.040771,569.038391 509.040771,612.746765 
	C523.829651,612.746765 538.380432,612.746765 553.409180,612.746765 
	C553.409180,596.046509 553.409180,579.644287 553.409180,563.004578 
	C557.871216,563.004578 561.863953,562.883118 565.840820,563.080811 
	C566.989868,563.137939 568.447632,563.826660 569.160950,564.711731 
	C574.142578,570.892883 579.018311,577.161743 583.826477,583.479797 
	C589.734009,591.242432 595.276245,599.304260 601.542358,606.761169 
	C603.669556,609.292603 604.626587,614.369751 610.817505,613.049866 
M937.970947,613.050049 
	C952.405762,613.050049 966.840576,613.050049 981.457886,613.050049 
	C981.237732,612.185486 981.195007,611.680847 980.988708,611.255493 
	C960.382507,568.762634 939.780579,526.267517 919.056274,483.832306 
	C918.500061,482.693359 916.620300,481.534271 915.342590,481.517242 
	C902.516602,481.346069 889.686584,481.349457 876.860352,481.512451 
	C875.627258,481.528107 873.819275,482.659546 873.275208,483.764099 
	C859.443970,511.843048 845.745667,539.987427 832.024963,568.120728 
	C825.357849,581.791077 818.682007,595.457214 812.046814,609.143005 
	C811.520264,610.228943 811.280884,611.454102 810.767822,613.050903 
	C824.829163,613.050903 838.312195,612.921692 851.789673,613.141113 
	C855.190613,613.196472 856.829163,612.006653 858.013000,608.990784 
	C860.526794,602.586853 863.488525,596.356934 865.937622,589.930359 
	C867.124939,586.814819 868.773804,585.720398 872.160217,585.769653 
	C886.151794,585.973389 900.159180,586.187012 914.137817,585.715393 
	C921.142578,585.479065 926.035889,586.400085 927.405701,594.519348 
	C928.005188,598.072510 930.311890,601.379517 932.059143,604.684265 
	C933.575928,607.553406 935.396851,610.261780 937.970947,613.050049 
M1296.671631,613.050903 
	C1309.901855,613.050903 1323.132202,613.050903 1336.774414,613.050903 
	C1333.182739,605.437073 1329.917847,598.332825 1326.500610,591.302673 
	C1309.148315,555.604980 1291.778809,519.915649 1274.289307,484.285248 
	C1273.657471,482.997955 1271.723022,481.558899 1270.374268,481.537506 
	C1257.387085,481.331573 1244.395142,481.387512 1231.405151,481.468628 
	C1230.382935,481.475006 1228.879883,481.944916 1228.436157,482.694336 
	C1227.058838,485.020874 1226.131226,487.608582 1224.946411,490.054962 
	C1218.822998,502.697205 1212.675171,515.327698 1206.533203,527.960938 
	C1200.703857,539.950745 1194.921875,551.963989 1189.025146,563.920654 
	C1183.241699,575.647949 1177.267944,587.281738 1171.527466,599.029663 
	C1169.382812,603.419006 1167.661255,608.015137 1165.519653,613.050964 
	C1179.919189,613.050964 1193.399048,612.919312 1206.873047,613.141785 
	C1210.324463,613.198730 1211.858765,611.883423 1213.026001,608.891846 
	C1215.580200,602.345825 1218.479370,595.935242 1221.126831,589.424316 
	C1222.181763,586.829956 1223.652832,585.735107 1226.685669,585.769409 
	C1242.838501,585.951782 1258.995239,585.940674 1275.148438,585.774536 
	C1277.957153,585.745728 1279.207275,586.837463 1280.223022,589.158936 
	C1283.035156,595.587158 1286.466187,601.790771 1288.714111,608.402283 
	C1290.069092,612.387085 1291.930786,613.688293 1296.671631,613.050903 
M829.545898,483.953918 
	C829.981323,483.336304 830.416748,482.718719 831.368225,481.369019 
	C815.329224,481.369019 800.074707,481.305542 784.822876,481.475891 
	C783.435852,481.491394 781.634888,482.689789 780.756348,483.878448 
	C774.129639,492.844147 767.474243,501.802460 761.246826,511.045349 
	C755.509216,519.561279 750.292786,528.428406 744.679932,537.407715 
	C743.547241,535.205811 742.714966,533.067261 741.455078,531.220398 
	C730.499573,515.160950 719.491638,499.136902 708.395935,483.174164 
	C707.754883,482.251892 706.219116,481.449982 705.093567,481.441742 
	C689.650269,481.328949 674.205933,481.365692 658.055725,481.365692 
	C659.475830,483.655670 660.398682,485.528168 661.666565,487.127014 
	C670.963867,498.850525 680.388245,510.473541 689.658447,522.218262 
	C698.780579,533.775330 707.759949,545.444885 716.819580,557.051270 
	C720.079163,561.227112 722.408936,565.398438 722.159058,571.235352 
	C721.625122,583.706482 721.987000,596.216431 722.006897,608.710449 
	C722.009155,610.128906 722.171387,611.547180 722.248657,612.791870 
	C737.370850,612.791870 751.973083,612.791870 766.971008,612.791870 
	C766.971008,597.415405 766.915344,582.294617 767.036804,567.175293 
	C767.053162,565.134155 767.385620,562.662598 768.549377,561.135376 
	C775.052734,552.601318 781.898865,544.329712 788.549133,535.906189 
	C802.066406,518.784302 815.533203,501.622650 829.545898,483.953918 
M1399.195923,523.500000 
	C1399.195923,509.583282 1399.195923,495.666534 1399.195923,481.641663 
	C1384.078979,481.641663 1369.661133,481.641663 1355.043945,481.641663 
	C1355.043945,525.479309 1355.043945,569.035767 1355.043945,612.718384 
	C1369.839600,612.718384 1384.388672,612.718384 1399.195923,612.718384 
	C1399.195923,583.098022 1399.195923,553.799011 1399.195923,523.500000 
M419.383789,601.151184 
	C418.889618,599.753113 418.444641,598.335388 417.893555,596.960083 
	C413.023193,584.806091 409.458099,571.532593 397.494568,564.152893 
	C387.183533,557.792542 381.964630,547.939392 377.052734,537.841003 
	C374.573456,532.743774 372.039917,528.186890 367.182709,525.127258 
	C364.318726,523.323242 363.201385,520.611206 364.186371,517.374939 
	C367.659363,505.964478 374.140289,497.112549 385.863220,493.108673 
	C396.096375,489.613678 406.542023,490.326538 416.816376,492.668732 
	C434.444702,496.687378 451.938812,498.366425 469.088226,490.959351 
	C474.652863,488.555878 479.890289,485.394806 485.277374,482.580231 
	C485.013580,481.927826 484.749817,481.275452 484.486023,480.623047 
	C482.676056,480.903809 480.874359,481.342743 479.054718,481.437469 
	C471.880859,481.810974 464.426300,483.466644 457.577454,482.111542 
	C439.700928,478.574463 422.134064,473.502228 404.349915,469.454315 
	C396.614624,467.693695 389.382751,469.184174 383.432068,475.215057 
	C379.209351,479.494690 374.607361,483.411530 370.023895,487.313171 
	C369.215424,488.001343 367.663666,487.816437 366.128601,488.093689 
	C370.987671,476.226959 369.602905,473.937286 357.573029,472.973541 
	C349.117798,472.296143 349.052948,472.348724 346.445526,482.702362 
	C345.520172,486.376709 345.475159,489.339874 350.186249,490.743774 
	C353.974335,491.872620 354.301086,494.980621 351.141388,497.320221 
	C348.796875,499.056244 346.180603,500.441620 343.620758,501.867126 
	C337.515472,505.266876 337.096649,506.741547 340.686829,512.322388 
	C341.301300,513.277649 342.008942,514.389038 342.058105,515.456604 
	C342.371857,522.269226 345.735077,527.804382 348.925598,533.552673 
	C354.963745,544.431396 361.736664,554.678223 372.708099,561.104553 
	C391.113861,571.885559 405.331360,586.618408 415.800446,605.107178 
	C417.551575,608.199768 419.467163,611.199158 421.306732,614.241577 
	C421.917938,613.941650 422.529114,613.641663 423.140320,613.341736 
	C422.012482,609.513306 420.884674,605.684875 419.383789,601.151184 
M426.068542,584.650452 
	C432.396851,564.626892 442.537628,546.576111 454.081146,529.143738 
	C458.322510,522.738647 461.265625,515.446350 464.512817,508.425568 
	C465.656128,505.953583 465.838226,502.497314 462.585510,501.738037 
	C460.344604,501.214966 457.493439,502.575928 455.141876,503.610596 
	C454.179962,504.033783 453.774628,505.796356 453.187347,506.984772 
	C448.039459,517.402100 442.920654,527.833862 437.768005,538.248901 
	C430.688263,552.559204 424.408478,567.176880 421.523895,582.984253 
	C420.946838,586.146545 421.440613,589.504211 421.440613,593.478088 
	C422.652313,592.500977 423.206787,592.274414 423.373077,591.882935 
	C424.277679,589.753784 425.086670,587.584045 426.068542,584.650452 
M441.535431,510.984406 
	C442.085175,509.777130 442.947296,508.609497 443.106934,507.352661 
	C443.314423,505.719666 443.585022,503.203369 442.707581,502.531891 
	C441.379059,501.515167 438.986267,501.272736 437.231018,501.624939 
	C435.826538,501.906738 434.294769,503.323639 433.507629,504.646301 
	C422.153412,523.724060 412.248169,543.375732 410.602234,566.067078 
	C410.462830,567.988647 411.013458,569.960205 411.243530,571.908569 
	C411.701294,571.914612 412.159058,571.920654 412.616791,571.926697 
	C413.126892,570.438354 413.701050,568.968445 414.136932,567.458618 
	C417.746521,554.957092 422.778778,543.109131 429.648895,532.007446 
	C433.748871,525.382141 437.327789,518.434326 441.535431,510.984406 
M403.237427,546.837708 
	C405.682526,541.393127 408.006195,535.889893 410.601349,530.517822 
	C414.423981,522.604675 418.634766,514.872009 422.220245,506.856720 
	C422.997864,505.118256 422.585083,501.300568 421.394562,500.553314 
	C418.984161,499.040436 416.178619,499.679016 414.454529,502.961731 
	C407.174042,516.824036 401.186523,531.156067 398.328552,546.614868 
	C397.844727,549.231812 398.546234,552.067993 398.700134,554.802856 
	C399.230682,554.812439 399.761230,554.822021 400.291809,554.831604 
	C401.194061,552.412720 402.096313,549.993835 403.237427,546.837708 
M396.335114,518.988403 
	C398.914917,513.782776 401.695251,508.661835 403.951569,503.319611 
	C404.622650,501.730682 403.822174,499.520233 403.695953,497.594543 
	C401.708344,497.883728 399.499207,497.738953 397.805511,498.603790 
	C396.525787,499.257263 395.571655,501.084961 395.047699,502.590210 
	C392.651215,509.475220 390.072998,516.335693 388.326263,523.394592 
	C387.163666,528.092773 387.291718,533.110352 386.842133,537.985046 
	C387.642761,538.147217 388.443390,538.309387 389.244019,538.471558 
	C391.523499,532.220703 393.802979,525.969849 396.335114,518.988403 
z"/>
<path fill="#2C487A" opacity="1.000000" stroke="none" 
	d="
M1146.798706,571.000000 
	C1146.798706,585.129333 1146.798706,598.758728 1146.798706,613.050903 
	C1143.208740,613.050903 1139.942627,613.050903 1136.676514,613.050903 
	C1126.849121,613.050842 1117.016724,613.216980 1107.198242,612.921875 
	C1105.024048,612.856506 1102.159912,611.749329 1100.866821,610.124329 
	C1089.159058,595.411255 1077.717285,580.486206 1066.223145,565.603516 
	C1057.253662,553.989929 1048.320679,542.348267 1039.080322,530.340881 
	C1039.080322,544.024414 1039.080200,557.663940 1039.080200,571.303467 
	C1039.080200,584.959778 1039.080322,598.616089 1039.080322,612.661499 
	C1025.750854,612.661499 1012.540588,612.661499 998.986572,612.661499 
	C998.986572,569.195923 998.986572,525.665100 998.986572,481.411438 
	C1003.784180,481.411438 1008.547668,481.411438 1013.311096,481.411438 
	C1021.639343,481.411438 1029.974487,481.610748 1038.292969,481.324951 
	C1042.282837,481.187866 1044.670898,482.783936 1046.951294,485.840027 
	C1066.476929,512.008118 1086.125854,538.084229 1105.755737,564.174316 
	C1105.906982,564.375244 1106.307495,564.388611 1106.505615,564.459045 
	C1106.505615,537.033081 1106.505615,509.580017 1106.505615,481.411438 
	C1109.314453,481.411438 1112.408447,481.411438 1115.502563,481.411438 
	C1123.997437,481.411438 1132.500732,481.636719 1140.983765,481.319275 
	C1145.432251,481.152771 1146.962646,482.244659 1146.919800,487.051727 
	C1146.672363,514.866028 1146.798828,542.683533 1146.798706,571.000000 
z"/>
<path fill="#2D487A" opacity="1.000000" stroke="none" 
	d="
M1552.233398,571.727173 
	C1562.957764,585.361633 1573.432739,598.737244 1584.258057,612.560059 
	C1583.010742,612.766235 1582.150391,613.030884 1581.289673,613.032471 
	C1567.126221,613.058350 1552.961426,613.141724 1538.801147,612.930115 
	C1537.131958,612.905151 1535.012085,611.605408 1533.906616,610.243103 
	C1524.916626,599.163025 1516.117310,587.928101 1507.262451,576.738342 
	C1504.747681,573.560425 1501.645142,570.670349 1499.889526,567.116089 
	C1497.915283,563.118713 1495.098267,562.739136 1491.421509,562.966675 
	C1488.447876,563.150635 1485.453857,563.004028 1482.339600,563.004028 
	C1482.339600,579.708069 1482.339600,596.121704 1482.339600,612.791992 
	C1467.542358,612.791992 1452.975220,612.791992 1438.160278,612.791992 
	C1438.160278,569.062256 1438.160278,525.497620 1438.160278,481.410614 
	C1439.984497,481.410614 1441.611206,481.410645 1443.237915,481.410645 
	C1462.566895,481.410645 1481.902100,481.106018 1501.223022,481.500854 
	C1518.698975,481.857971 1536.271484,482.042114 1553.094360,487.980011 
	C1562.366821,491.252838 1571.350098,495.223206 1577.383179,503.292999 
	C1589.341309,519.288879 1585.411133,537.715271 1567.662720,547.821289 
	C1559.776245,552.311890 1551.102783,555.420227 1542.647827,559.218262 
	C1545.397949,562.826660 1548.691040,567.147522 1552.233398,571.727173 
M1530.037720,536.795776 
	C1532.312012,534.906006 1535.129639,533.395996 1536.762939,531.058472 
	C1542.706909,522.551086 1538.869995,511.537964 1527.972656,508.136169 
	C1520.353760,505.757751 1512.111450,505.078430 1504.083130,504.399872 
	C1497.073486,503.807373 1489.974121,504.276337 1482.868164,504.276337 
	C1482.868164,516.914612 1482.868164,528.784119 1482.868164,541.000061 
	C1490.946655,541.000061 1498.774536,541.516235 1506.501587,540.854126 
	C1514.157471,540.198120 1521.711670,538.354187 1530.037720,536.795776 
z"/>
<path fill="#2C487A" opacity="1.000000" stroke="none" 
	d="
M610.362732,613.049866 
	C604.626587,614.369751 603.669556,609.292603 601.542358,606.761169 
	C595.276245,599.304260 589.734009,591.242432 583.826477,583.479797 
	C579.018311,577.161743 574.142578,570.892883 569.160950,564.711731 
	C568.447632,563.826660 566.989868,563.137939 565.840820,563.080811 
	C561.863953,562.883118 557.871216,563.004578 553.409180,563.004578 
	C553.409180,579.644287 553.409180,596.046509 553.409180,612.746765 
	C538.380432,612.746765 523.829651,612.746765 509.040771,612.746765 
	C509.040771,569.038391 509.040771,525.490173 509.040771,481.415222 
	C510.903046,481.415222 512.530334,481.415253 514.157654,481.415222 
	C533.478210,481.414612 552.804077,481.132080 572.117615,481.499512 
	C588.600891,481.813141 605.178650,481.991852 621.143677,487.070770 
	C631.928528,490.501801 641.967224,495.020294 649.098083,504.513031 
	C658.636169,517.210327 656.175415,535.545044 643.081238,544.758118 
	C638.571228,547.931274 633.644226,550.623169 628.632812,552.940613 
	C623.744080,555.201294 618.504456,556.703003 612.959473,558.703613 
	C626.872437,576.484741 640.860535,594.362000 655.482971,613.049866 
	C639.923584,613.049866 625.370544,613.049866 610.362732,613.049866 
M599.257080,508.025482 
	C584.314758,502.982819 568.930481,504.486816 553.490479,504.268036 
	C553.490479,516.830505 553.490479,528.714844 553.490479,541.003540 
	C562.015930,541.003540 570.310364,541.379944 578.552063,540.882385 
	C584.932190,540.497192 591.361328,539.472656 597.558411,537.902527 
	C604.188232,536.222717 609.141113,532.151794 610.013977,524.751343 
	C610.961914,516.714417 607.016174,511.530762 599.257080,508.025482 
z"/>
<path fill="#2C487A" opacity="1.000000" stroke="none" 
	d="
M937.527161,613.045593 
	C935.396851,610.261780 933.575928,607.553406 932.059143,604.684265 
	C930.311890,601.379517 928.005188,598.072510 927.405701,594.519348 
	C926.035889,586.400085 921.142578,585.479065 914.137817,585.715393 
	C900.159180,586.187012 886.151794,585.973389 872.160217,585.769653 
	C868.773804,585.720398 867.124939,586.814819 865.937622,589.930359 
	C863.488525,596.356934 860.526794,602.586853 858.013000,608.990784 
	C856.829163,612.006653 855.190613,613.196472 851.789673,613.141113 
	C838.312195,612.921692 824.829163,613.050903 810.767822,613.050903 
	C811.280884,611.454102 811.520264,610.228943 812.046814,609.143005 
	C818.682007,595.457214 825.357849,581.791077 832.024963,568.120728 
	C845.745667,539.987427 859.443970,511.843048 873.275208,483.764099 
	C873.819275,482.659546 875.627258,481.528107 876.860352,481.512451 
	C889.686584,481.349457 902.516602,481.346069 915.342590,481.517242 
	C916.620300,481.534271 918.500061,482.693359 919.056274,483.832306 
	C939.780579,526.267517 960.382507,568.762634 980.988708,611.255493 
	C981.195007,611.680847 981.237732,612.185486 981.457886,613.050049 
	C966.840576,613.050049 952.405762,613.050049 937.527161,613.045593 
M879.233521,563.876404 
	C890.771606,563.876404 902.309692,563.876404 914.162292,563.876404 
	C907.865967,548.032043 901.848877,532.890381 895.871765,517.849243 
	C891.933594,528.041504 888.042786,538.042908 884.207397,548.065430 
	C882.223572,553.249573 880.338013,558.471313 879.233521,563.876404 
z"/>
<path fill="#2C487A" opacity="1.000000" stroke="none" 
	d="
M1296.200806,613.050964 
	C1291.930786,613.688293 1290.069092,612.387085 1288.714111,608.402283 
	C1286.466187,601.790771 1283.035156,595.587158 1280.223022,589.158936 
	C1279.207275,586.837463 1277.957153,585.745728 1275.148438,585.774536 
	C1258.995239,585.940674 1242.838501,585.951782 1226.685669,585.769409 
	C1223.652832,585.735107 1222.181763,586.829956 1221.126831,589.424316 
	C1218.479370,595.935242 1215.580200,602.345825 1213.026001,608.891846 
	C1211.858765,611.883423 1210.324463,613.198730 1206.873047,613.141785 
	C1193.399048,612.919312 1179.919189,613.050964 1165.519653,613.050964 
	C1167.661255,608.015137 1169.382812,603.419006 1171.527466,599.029663 
	C1177.267944,587.281738 1183.241699,575.647949 1189.025146,563.920654 
	C1194.921875,551.963989 1200.703857,539.950745 1206.533203,527.960938 
	C1212.675171,515.327698 1218.822998,502.697205 1224.946411,490.054962 
	C1226.131226,487.608582 1227.058838,485.020874 1228.436157,482.694336 
	C1228.879883,481.944916 1230.382935,481.475006 1231.405151,481.468628 
	C1244.395142,481.387512 1257.387085,481.331573 1270.374268,481.537506 
	C1271.723022,481.558899 1273.657471,482.997955 1274.289307,484.285248 
	C1291.778809,519.915649 1309.148315,555.604980 1326.500610,591.302673 
	C1329.917847,598.332825 1333.182739,605.437073 1336.774414,613.050903 
	C1323.132202,613.050903 1309.901855,613.050903 1296.200806,613.050964 
M1250.520996,517.641052 
	C1244.787109,532.968262 1239.053345,548.295410 1233.306274,563.658081 
	C1245.280884,563.658081 1257.015015,563.658081 1268.913452,563.658081 
	C1262.929932,548.224060 1257.051514,533.061646 1250.520996,517.641052 
z"/>
<path fill="#2D487A" opacity="1.000000" stroke="none" 
	d="
M829.283386,484.215637 
	C815.533203,501.622650 802.066406,518.784302 788.549133,535.906189 
	C781.898865,544.329712 775.052734,552.601318 768.549377,561.135376 
	C767.385620,562.662598 767.053162,565.134155 767.036804,567.175293 
	C766.915344,582.294617 766.971008,597.415405 766.971008,612.791870 
	C751.973083,612.791870 737.370850,612.791870 722.248657,612.791870 
	C722.171387,611.547180 722.009155,610.128906 722.006897,608.710449 
	C721.987000,596.216431 721.625122,583.706482 722.159058,571.235352 
	C722.408936,565.398438 720.079163,561.227112 716.819580,557.051270 
	C707.759949,545.444885 698.780579,533.775330 689.658447,522.218262 
	C680.388245,510.473541 670.963867,498.850525 661.666565,487.127014 
	C660.398682,485.528168 659.475830,483.655670 658.055725,481.365692 
	C674.205933,481.365692 689.650269,481.328949 705.093567,481.441742 
	C706.219116,481.449982 707.754883,482.251892 708.395935,483.174164 
	C719.491638,499.136902 730.499573,515.160950 741.455078,531.220398 
	C742.714966,533.067261 743.547241,535.205811 744.679932,537.407715 
	C750.292786,528.428406 755.509216,519.561279 761.246826,511.045349 
	C767.474243,501.802460 774.129639,492.844147 780.756348,483.878448 
	C781.634888,482.689789 783.435852,481.491394 784.822876,481.475891 
	C800.074707,481.305542 815.329224,481.369019 831.368225,481.369019 
	C830.416748,482.718719 829.981323,483.336304 829.283386,484.215637 
z"/>
<path fill="#2C4879" opacity="1.000000" stroke="none" 
	d="
M1399.195923,524.000000 
	C1399.195923,553.799011 1399.195923,583.098022 1399.195923,612.718384 
	C1384.388672,612.718384 1369.839600,612.718384 1355.043945,612.718384 
	C1355.043945,569.035767 1355.043945,525.479309 1355.043945,481.641663 
	C1369.661133,481.641663 1384.078979,481.641663 1399.195923,481.641663 
	C1399.195923,495.666534 1399.195923,509.583282 1399.195923,524.000000 
z"/>
<path fill="#F4CC38" opacity="1.000000" stroke="none" 
	d="
M419.570312,601.503784 
	C420.884674,605.684875 422.012482,609.513306 423.140320,613.341736 
	C422.529114,613.641663 421.917938,613.941650 421.306732,614.241577 
	C419.467163,611.199158 417.551575,608.199768 415.800446,605.107178 
	C405.331360,586.618408 391.113861,571.885559 372.708099,561.104553 
	C361.736664,554.678223 354.963745,544.431396 348.925598,533.552673 
	C345.735077,527.804382 342.371857,522.269226 342.058105,515.456604 
	C342.008942,514.389038 341.301300,513.277649 340.686829,512.322388 
	C337.096649,506.741547 337.515472,505.266876 343.620758,501.867126 
	C346.180603,500.441620 348.796875,499.056244 351.141388,497.320221 
	C354.301086,494.980621 353.974335,491.872620 350.186249,490.743774 
	C345.475159,489.339874 345.520172,486.376709 346.445526,482.702362 
	C349.052948,472.348724 349.117798,472.296143 357.573029,472.973541 
	C369.602905,473.937286 370.987671,476.226959 366.128601,488.093689 
	C367.663666,487.816437 369.215424,488.001343 370.023895,487.313171 
	C374.607361,483.411530 379.209351,479.494690 383.432068,475.215057 
	C389.382751,469.184174 396.614624,467.693695 404.349915,469.454315 
	C422.134064,473.502228 439.700928,478.574463 457.577454,482.111542 
	C464.426300,483.466644 471.880859,481.810974 479.054718,481.437469 
	C480.874359,481.342743 482.676056,480.903809 484.486023,480.623047 
	C484.749817,481.275452 485.013580,481.927826 485.277374,482.580231 
	C479.890289,485.394806 474.652863,488.555878 469.088226,490.959351 
	C451.938812,498.366425 434.444702,496.687378 416.816376,492.668732 
	C406.542023,490.326538 396.096375,489.613678 385.863220,493.108673 
	C374.140289,497.112549 367.659363,505.964478 364.186371,517.374939 
	C363.201385,520.611206 364.318726,523.323242 367.182709,525.127258 
	C372.039917,528.186890 374.573456,532.743774 377.052734,537.841003 
	C381.964630,547.939392 387.183533,557.792542 397.494568,564.152893 
	C409.458099,571.532593 413.023193,584.806091 417.893555,596.960083 
	C418.444641,598.335388 418.889618,599.753113 419.570312,601.503784 
z"/>
<path fill="#F5CC3A" opacity="1.000000" stroke="none" 
	d="
M425.998535,585.039307 
	C425.086670,587.584045 424.277679,589.753784 423.373077,591.882935 
	C423.206787,592.274414 422.652313,592.500977 421.440613,593.478088 
	C421.440613,589.504211 420.946838,586.146545 421.523895,582.984253 
	C424.408478,567.176880 430.688263,552.559204 437.768005,538.248901 
	C442.920654,527.833862 448.039459,517.402100 453.187347,506.984772 
	C453.774628,505.796356 454.179962,504.033783 455.141876,503.610596 
	C457.493439,502.575928 460.344604,501.214966 462.585510,501.738037 
	C465.838226,502.497314 465.656128,505.953583 464.512817,508.425568 
	C461.265625,515.446350 458.322510,522.738647 454.081146,529.143738 
	C442.537628,546.576111 432.396851,564.626892 425.998535,585.039307 
z"/>
<path fill="#F5CC3A" opacity="1.000000" stroke="none" 
	d="
M441.338196,511.307983 
	C437.327789,518.434326 433.748871,525.382141 429.648895,532.007446 
	C422.778778,543.109131 417.746521,554.957092 414.136932,567.458618 
	C413.701050,568.968445 413.126892,570.438354 412.616791,571.926697 
	C412.159058,571.920654 411.701294,571.914612 411.243530,571.908569 
	C411.013458,569.960205 410.462830,567.988647 410.602234,566.067078 
	C412.248169,543.375732 422.153412,523.724060 433.507629,504.646301 
	C434.294769,503.323639 435.826538,501.906738 437.231018,501.624939 
	C438.986267,501.272736 441.379059,501.515167 442.707581,502.531891 
	C443.585022,503.203369 443.314423,505.719666 443.106934,507.352661 
	C442.947296,508.609497 442.085175,509.777130 441.338196,511.307983 
z"/>
<path fill="#F5CC3A" opacity="1.000000" stroke="none" 
	d="
M403.118011,547.206299 
	C402.096313,549.993835 401.194061,552.412720 400.291809,554.831604 
	C399.761230,554.822021 399.230682,554.812439 398.700134,554.802856 
	C398.546234,552.067993 397.844727,549.231812 398.328552,546.614868 
	C401.186523,531.156067 407.174042,516.824036 414.454529,502.961731 
	C416.178619,499.679016 418.984161,499.040436 421.394562,500.553314 
	C422.585083,501.300568 422.997864,505.118256 422.220245,506.856720 
	C418.634766,514.872009 414.423981,522.604675 410.601349,530.517822 
	C408.006195,535.889893 405.682526,541.393127 403.118011,547.206299 
z"/>
<path fill="#F5CC3A" opacity="1.000000" stroke="none" 
	d="
M396.208801,519.353699 
	C393.802979,525.969849 391.523499,532.220703 389.244019,538.471558 
	C388.443390,538.309387 387.642761,538.147217 386.842133,537.985046 
	C387.291718,533.110352 387.163666,528.092773 388.326263,523.394592 
	C390.072998,516.335693 392.651215,509.475220 395.047699,502.590210 
	C395.571655,501.084961 396.525787,499.257263 397.805511,498.603790 
	C399.499207,497.738953 401.708344,497.883728 403.695953,497.594543 
	C403.822174,499.520233 404.622650,501.730682 403.951569,503.319611 
	C401.695251,508.661835 398.914917,513.782776 396.208801,519.353699 
z"/>
<path fill="#FDFEFE" opacity="1.000000" stroke="none" 
	d="
M1529.674072,536.913513 
	C1521.711670,538.354187 1514.157471,540.198120 1506.501587,540.854126 
	C1498.774536,541.516235 1490.946655,541.000061 1482.868164,541.000061 
	C1482.868164,528.784119 1482.868164,516.914612 1482.868164,504.276337 
	C1489.974121,504.276337 1497.073486,503.807373 1504.083130,504.399872 
	C1512.111450,505.078430 1520.353760,505.757751 1527.972656,508.136169 
	C1538.869995,511.537964 1542.706909,522.551086 1536.762939,531.058472 
	C1535.129639,533.395996 1532.312012,534.906006 1529.674072,536.913513 
z"/>
<path fill="#FCFDFD" opacity="1.000000" stroke="none" 
	d="
M599.612183,508.168091 
	C607.016174,511.530762 610.961914,516.714417 610.013977,524.751343 
	C609.141113,532.151794 604.188232,536.222717 597.558411,537.902527 
	C591.361328,539.472656 584.932190,540.497192 578.552063,540.882385 
	C570.310364,541.379944 562.015930,541.003540 553.490479,541.003540 
	C553.490479,528.714844 553.490479,516.830505 553.490479,504.268036 
	C568.930481,504.486816 584.314758,502.982819 599.612183,508.168091 
z"/>
<path fill="#FCFDFD" opacity="1.000000" stroke="none" 
	d="
M878.820801,563.776245 
	C880.338013,558.471313 882.223572,553.249573 884.207397,548.065430 
	C888.042786,538.042908 891.933594,528.041504 895.871765,517.849243 
	C901.848877,532.890381 907.865967,548.032043 914.162292,563.876404 
	C902.309692,563.876404 890.771606,563.876404 878.820801,563.776245 
z"/>
<path fill="#FCFDFD" opacity="1.000000" stroke="none" 
	d="
M1250.847168,517.770142 
	C1257.051514,533.061646 1262.929932,548.224060 1268.913452,563.658081 
	C1257.015015,563.658081 1245.280884,563.658081 1233.306274,563.658081 
	C1239.053345,548.295410 1244.787109,532.968262 1250.847168,517.770142 
z"/>
</svg>